<svg xmlns="http://www.w3.org/2000/svg" width="600" height="120" viewBox="0 0 600 120">
  <defs>
    <g id="rosette">
      <circle cx="0" cy="0" r="10" fill="#D9A441"/>
      <g fill="#1E8C82">
        <path d="M0,-46 L12,-14 L-12,-14 Z"/>
        <path d="M0,46 L12,14 L-12,14 Z"/>
        <path d="M-46,0 L-14,-12 L-14,12 Z"/>
        <path d="M46,0 L14,-12 L14,12 Z"/>
        <path d="M-32,-32 L-2,-16 L-16,-2 Z"/>
        <path d="M32,-32 L16,-2 L2,-16 Z"/>
        <path d="M-32,32 L-16,2 L-2,16 Z"/>
        <path d="M32,32 L2,16 L16,2 Z"/>
      </g>
      <circle cx="0" cy="0" r="18" fill="none" stroke="#FF7A66" stroke-width="5"/>
      <circle cx="0" cy="0" r="30" fill="none" stroke="#1E8C82" stroke-width="3" stroke-dasharray="6 8"/>
    </g>
    <g id="diamond">
      <path d="M0,-16 L16,0 L0,16 L-16,0 Z" fill="#FF7A66"/>
      <path d="M0,-8 L8,0 L0,8 L-8,0 Z" fill="#FFF9EE"/>
    </g>
  </defs>
  <rect x="0" y="56" width="600" height="8" fill="#1E8C82" opacity="0.35"/>
  <use href="#rosette" x="60" y="60"/>
  <use href="#diamond" x="150" y="60"/>
  <use href="#rosette" x="240" y="60"/>
  <use href="#diamond" x="330" y="60"/>
  <use href="#rosette" x="420" y="60"/>
  <use href="#diamond" x="510" y="60"/>
  <circle cx="105" cy="60" r="5" fill="#D9A441"/>
  <circle cx="195" cy="60" r="5" fill="#D9A441"/>
  <circle cx="285" cy="60" r="5" fill="#D9A441"/>
  <circle cx="375" cy="60" r="5" fill="#D9A441"/>
  <circle cx="465" cy="60" r="5" fill="#D9A441"/>
  <circle cx="555" cy="60" r="5" fill="#D9A441"/>
</svg>
