{
  "accessors": [
    {
      "bufferView": 2,
      "componentType": 5126,
      "count": 10000,
      "max": [
        -0.11979000270366669,
        -0.913919985294342,
        0.9440299868583679
      ],
      "min": [
        -2.6293599605560303,
        -5.795979976654053,
        -0.5572800040245056
      ],
      "type": "VEC3"
    },
    {
      "bufferView": 2,
      "byteOffset": 120000,
      "componentType": 5126,
      "count": 10000,
      "max": [
        0.9998125433921814,
        0.9999635815620422,
        0.9998224973678589
      ],
      "min": [
        -0.9985151290893555,
        -0.9995750188827515,
        -0.9995543956756592
      ],
      "type": "VEC3"
    },
    {
      "bufferView": 1,
      "componentType": 5126,
      "count": 10000,
      "max": [
        0.0,
        0.0
      ],
      "min": [
        0.0,
        0.0
      ],
      "type": "VEC2"
    },
    {
      "bufferView": 0,
      "componentType": 5125,
      "count": 59904,
      "type": "SCALAR"
    },
    {
      "bufferView": 2,
      "byteOffset": 240000,
      "componentType": 5126,
      "count": 555,
      "max": [
        0.11210999637842178,
        -0.4536600112915039,
        1.3385900259017944
      ],
      "min": [
        -4.420289993286133,
        -5.8142900466918945,
        -1.6663099527359009
      ],
      "type": "VEC3"
    },
    {
      "bufferView": 2,
      "byteOffset": 246660,
      "componentType": 5126,
      "count": 555,
      "max": [
        0.9998313188552856,
        0.9699007868766785,
        0.9700634479522705
      ],
      "min": [
        -0.9998307228088379,
        -0.9699007868766785,
        -0.9700634479522705
      ],
      "type": "VEC3"
    },
    {
      "bufferView": 1,
      "byteOffset": 80000,
      "componentType": 5126,
      "count": 555,
      "max": [
        2.033750057220459,
        1.7772799730300903
      ],
      "min": [
        -2.033750057220459,
        -1.1738300323486328
      ],
      "type": "VEC2"
    },
    {
      "bufferView": 0,
      "byteOffset": 239616,
      "componentType": 5125,
      "count": 1260,
      "type": "SCALAR"
    },
    {
      "bufferView": 2,
      "byteOffset": 253320,
      "componentType": 5126,
      "count": 203,
      "max": [
        0.0636100023984909,
        -1.133370041847229,
        -0.275299996137619
      ],
      "min": [
        -3.512939929962158,
        -5.515649795532227,
        -1.4972000122070313
      ],
      "type": "VEC3"
    },
    {
      "bufferView": 2,
      "byteOffset": 255756,
      "componentType": 5126,
      "count": 203,
      "max": [
        0.9999851584434509,
        0.9699007868766785,
        0.9999988675117493
      ],
      "min": [
        -0.8951817154884338,
        -0.9922780394554138,
        -0.999998152256012
      ],
      "type": "VEC3"
    },
    {
      "bufferView": 1,
      "byteOffset": 84440,
      "componentType": 5126,
      "count": 203,
      "max": [
        1.224660038948059,
        3.3354499340057373
      ],
      "min": [
        -0.20642000436782837,
        -0.33340999484062195
      ],
      "type": "VEC2"
    },
    {
      "bufferView": 0,
      "byteOffset": 244656,
      "componentType": 5125,
      "count": 447,
      "type": "SCALAR"
    },
    {
      "bufferView": 2,
      "byteOffset": 258192,
      "componentType": 5126,
      "count": 48,
      "max": [
        -0.6525300145149231,
        -1.1731300354003906,
        0.5433700084686279
      ],
      "min": [
        -4.132900238037109,
        -4.032400131225586,
        -0.9995200037956238
      ],
      "type": "VEC3"
    },
    {
      "bufferView": 2,
      "byteOffset": 258768,
      "componentType": 5126,
      "count": 48,
      "max": [
        0.0,
        0.0,
        1.0
      ],
      "min": [
        -0.0044600157998502254,
        -0.24281086027622223,
        0.9700634479522705
      ],
      "type": "VEC3"
    },
    {
      "bufferView": 1,
      "byteOffset": 86064,
      "componentType": 5126,
      "count": 48,
      "max": [
        36.90850830078125,
        45.099979400634766
      ],
      "min": [
        -3.950000047683716,
        -0.526669979095459
      ],
      "type": "VEC2"
    },
    {
      "bufferView": 1,
      "byteOffset": 86448,
      "componentType": 5126,
      "count": 48,
      "max": [
        36.90850830078125,
        45.099979400634766
      ],
      "min": [
        -3.950000047683716,
        -0.526669979095459
      ],
      "type": "VEC2"
    },
    {
      "bufferView": 0,
      "byteOffset": 246444,
      "componentType": 5125,
      "count": 78,
      "type": "SCALAR"
    },
    {
      "bufferView": 2,
      "byteOffset": 259344,
      "componentType": 5126,
      "count": 18,
      "max": [
        -2.6974799633026123,
        -2.585200071334839,
        -0.04729999974370003
      ],
      "min": [
        -3.654979944229126,
        -4.181119918823242,
        -0.9995200037956238
      ],
      "type": "VEC3"
    },
    {
      "bufferView": 2,
      "byteOffset": 259560,
      "componentType": 5126,
      "count": 18,
      "max": [
        0.9998307228088379,
        0.9699007868766785,
        0.24284522235393524
      ],
      "min": [
        -0.01785038411617279,
        -0.9699007868766785,
        -0.24284522235393524
      ],
      "type": "VEC3"
    },
    {
      "bufferView": 1,
      "byteOffset": 86832,
      "componentType": 5126,
      "count": 18,
      "max": [
        799.015380859375,
        198.41647338867188
      ],
      "min": [
        -799.015380859375,
        66.24015808105469
      ],
      "type": "VEC2"
    },
    {
      "bufferView": 0,
      "byteOffset": 246756,
      "componentType": 5125,
      "count": 42,
      "type": "SCALAR"
    },
    {
      "bufferView": 2,
      "byteOffset": 259776,
      "componentType": 5126,
      "count": 1062,
      "max": [
        -2.9425299167633057,
        -1.40146005153656,
        1.2983700037002563
      ],
      "min": [
        -3.922569990158081,
        -4.15693998336792,
        0.3431999981403351
      ],
      "type": "VEC3"
    },
    {
      "bufferView": 2,
      "byteOffset": 272520,
      "componentType": 5126,
      "count": 1062,
      "max": [
        0.9998307228088379,
        0.9987523555755615,
        1.0
      ],
      "min": [
        -1.0,
        -0.9699191451072693,
        -0.999998152256012
      ],
      "type": "VEC3"
    },
    {
      "bufferView": 1,
      "byteOffset": 86976,
      "componentType": 5126,
      "count": 1062,
      "max": [
        1.0016200542449951,
        0.9691600203514099
      ],
      "min": [
        0.034529998898506165,
        0.0032399999909102917
      ],
      "type": "VEC2"
    },
    {
      "bufferView": 0,
      "byteOffset": 246924,
      "componentType": 5125,
      "count": 1998,
      "type": "SCALAR"
    },
    {
      "bufferView": 2,
      "byteOffset": 285264,
      "componentType": 5126,
      "count": 28360,
      "max": [
        -0.17737999558448792,
        -1.1731300354003906,
        0.9742599725723267
      ],
      "min": [
        -4.133959770202637,
        -4.051849842071533,
        -1.0613399744033813
      ],
      "type": "VEC3"
    },
    {
      "bufferView": 2,
      "byteOffset": 625584,
      "componentType": 5126,
      "count": 28360,
      "max": [
        0.999939501285553,
        0.999878466129303,
        0.9999682307243347
      ],
      "min": [
        -0.999914288520813,
        -0.9998296499252319,
        -1.0
      ],
      "type": "VEC3"
    },
    {
      "bufferView": 1,
      "byteOffset": 95472,
      "componentType": 5126,
      "count": 28360,
      "max": [
        5.570000171661377,
        7.801750183105469
      ],
      "min": [
        -5.570000171661377,
        -0.8450599908828735
      ],
      "type": "VEC2"
    },
    {
      "bufferView": 0,
      "byteOffset": 254916,
      "componentType": 5125,
      "count": 43161,
      "type": "SCALAR"
    },
    {
      "bufferView": 2,
      "byteOffset": 965904,
      "componentType": 5126,
      "count": 80,
      "max": [
        -0.661620020866394,
        -1.179129958152771,
        0.7664999961853027
      ],
      "min": [
        -4.124889850616455,
        -4.046929836273193,
        -0.7593200206756592
      ],
      "type": "VEC3"
    },
    {
      "bufferView": 2,
      "byteOffset": 966864,
      "componentType": 5126,
      "count": 80,
      "max": [
        0.9998307228088379,
        0.9699007868766785,
        0.24284522235393524
      ],
      "min": [
        -0.01785038411617279,
        -0.9699007868766785,
        -0.24284522235393524
      ],
      "type": "VEC3"
    },
    {
      "bufferView": 1,
      "byteOffset": 322352,
      "componentType": 5126,
      "count": 80,
      "max": [
        77.0531005859375,
        47.139930725097656
      ],
      "min": [
        -0.0,
        -0.0
      ],
      "type": "VEC2"
    },
    {
      "bufferView": 0,
      "byteOffset": 427560,
      "componentType": 5125,
      "count": 120,
      "type": "SCALAR"
    },
    {
      "bufferView": 2,
      "byteOffset": 967824,
      "componentType": 5126,
      "count": 11613,
      "max": [
        0.11210999637842178,
        -0.6653199791908264,
        1.3385900259017944
      ],
      "min": [
        -4.421380043029785,
        -5.8260698318481445,
        -1.2145600318908691
      ],
      "type": "VEC3"
    },
    {
      "bufferView": 2,
      "byteOffset": 1107180,
      "componentType": 5126,
      "count": 11613,
      "max": [
        0.9998313188552856,
        0.9928141832351685,
        0.9999427199363708
      ],
      "min": [
        -0.9998313188552856,
        -0.9852017760276794,
        -0.999998152256012
      ],
      "type": "VEC3"
    },
    {
      "bufferView": 1,
      "byteOffset": 322992,
      "componentType": 5126,
      "count": 11613,
      "max": [
        2.1806800365448,
        4.638050079345703
      ],
      "min": [
        -2.1806800365448,
        -1.0835299491882324
      ],
      "type": "VEC2"
    },
    {
      "bufferView": 0,
      "byteOffset": 428040,
      "componentType": 5125,
      "count": 22731,
      "type": "SCALAR"
    },
    {
      "bufferView": 2,
      "byteOffset": 1246536,
      "componentType": 5126,
      "count": 65532,
      "max": [
        -0.6197900176048279,
        -1.2372100353240967,
        -0.05556999891996384
      ],
      "min": [
        -2.6611900329589844,
        -2.771559953689575,
        -0.6697900295257568
      ],
      "type": "VEC3"
    },
    {
      "bufferView": 2,
      "byteOffset": 2032920,
      "componentType": 5126,
      "count": 65532,
      "max": [
        0.999989926815033,
        0.9999104738235474,
        0.9999653697013855
      ],
      "min": [
        -0.9999851584434509,
        -0.9999569058418274,
        -0.9999522566795349
      ],
      "type": "VEC3"
    },
    {
      "bufferView": 1,
      "byteOffset": 415896,
      "componentType": 5126,
      "count": 65532,
      "max": [
        1.9381400346755981,
        1.0531500577926636
      ],
      "min": [
        -1.9381400346755981,
        -0.7540000081062317
      ],
      "type": "VEC2"
    },
    {
      "bufferView": 0,
      "byteOffset": 518964,
      "componentType": 5125,
      "count": 104754,
      "type": "SCALAR"
    },
    {
      "bufferView": 2,
      "byteOffset": 2819304,
      "componentType": 5126,
      "count": 492,
      "max": [
        -0.6279299855232239,
        -1.2372100353240967,
        -0.05803000181913376
      ],
      "min": [
        -2.643160104751587,
        -2.74114990234375,
        -0.6288700103759766
      ],
      "type": "VEC3"
    },
    {
      "bufferView": 2,
      "byteOffset": 2825208,
      "componentType": 5126,
      "count": 492,
      "max": [
        0.9998317956924438,
        0.9992519021034241,
        0.9987447261810303
      ],
      "min": [
        -0.9998317956924438,
        -0.9996969103813171,
        -0.9987461566925049
      ],
      "type": "VEC3"
    },
    {
      "bufferView": 1,
      "byteOffset": 940152,
      "componentType": 5126,
      "count": 492,
      "max": [
        1.9381400346755981,
        0.8271399736404419
      ],
      "min": [
        -1.9381400346755981,
        -0.6038900017738342
      ],
      "type": "VEC2"
    },
    {
      "bufferView": 0,
      "byteOffset": 937980,
      "componentType": 5125,
      "count": 738,
      "type": "SCALAR"
    },
    {
      "bufferView": 2,
      "byteOffset": 2831112,
      "componentType": 5126,
      "count": 2424,
      "max": [
        -3.32204008102417,
        -2.3534200191497803,
        -0.3332799971103668
      ],
      "min": [
        -3.5074899196624756,
        -2.5913798809051514,
        -0.6297000050544739
      ],
      "type": "VEC3"
    },
    {
      "bufferView": 2,
      "byteOffset": 2860200,
      "componentType": 5126,
      "count": 2424,
      "max": [
        0.9998313188552856,
        0.9994964599609375,
        0.999832272529602
      ],
      "min": [
        -0.9998313188552856,
        -0.9994977712631226,
        -0.9941878914833069
      ],
      "type": "VEC3"
    },
    {
      "bufferView": 1,
      "byteOffset": 944088,
      "componentType": 5126,
      "count": 2424,
      "max": [
        -15.616640090942383,
        0.1423799991607666
      ],
      "min": [
        -15.868049621582031,
        -0.26100999116897583
      ],
      "type": "VEC2"
    },
    {
      "bufferView": 0,
      "byteOffset": 940932,
      "componentType": 5125,
      "count": 10644,
      "type": "SCALAR"
    },
    {
      "bufferView": 2,
      "byteOffset": 2889288,
      "componentType": 5126,
      "count": 783,
      "max": [
        -2.786129951477051,
        -3.536210060119629,
        0.6883299946784973
      ],
      "min": [
        -2.937619924545288,
        -3.6712899208068848,
        0.457179993391037
      ],
      "type": "VEC3"
    },
    {
      "bufferView": 2,
      "byteOffset": 2898684,
      "componentType": 5126,
      "count": 783,
      "max": [
        0.9860119819641113,
        0.9850714206695557,
        0.9973165392875671
      ],
      "min": [
        -0.9860119819641113,
        -0.985083281993866,
        -0.9973165392875671
      ],
      "type": "VEC3"
    },
    {
      "bufferView": 1,
      "byteOffset": 963480,
      "componentType": 5126,
      "count": 783,
      "max": [
        0.9976500272750854,
        0.954289972782135
      ],
      "min": [
        0.0917000025510788,
        -0.0870399996638298
      ],
      "type": "VEC2"
    },
    {
      "bufferView": 0,
      "byteOffset": 983508,
      "componentType": 5125,
      "count": 2280,
      "type": "SCALAR"
    },
    {
      "bufferView": 2,
      "byteOffset": 2908080,
      "componentType": 5126,
      "count": 12090,
      "max": [
        -0.17034000158309937,
        -1.498460054397583,
        1.4414199590682983
      ],
      "min": [
        -3.3803699016571045,
        -5.2153801918029785,
        0.05448000133037567
      ],
      "type": "VEC3"
    },
    {
      "bufferView": 2,
      "byteOffset": 3053160,
      "componentType": 5126,
      "count": 12090,
      "max": [
        0.9998313188552856,
        0.9963823556900024,
        0.999999463558197
      ],
      "min": [
        -0.9998313188552856,
        -0.9984098672866821,
        -0.9983992576599121
      ],
      "type": "VEC3"
    },
    {
      "bufferView": 1,
      "byteOffset": 969744,
      "componentType": 5126,
      "count": 12090,
      "max": [
        1.3725199699401855,
        2.3243000507354736
      ],
      "min": [
        -0.6492199897766113,
        -0.5237699747085571
      ],
      "type": "VEC2"
    },
    {
      "bufferView": 0,
      "byteOffset": 992628,
      "componentType": 5125,
      "count": 33234,
      "type": "SCALAR"
    },
    {
      "bufferView": 2,
      "byteOffset": 3198240,
      "componentType": 5126,
      "count": 274,
      "max": [
        -2.6030800342559814,
        -3.1489100456237793,
        0.42785999178886414
      ],
      "min": [
        -2.6726601123809814,
        -3.3366599082946777,
        0.2550800144672394
      ],
      "type": "VEC3"
    },
    {
      "bufferView": 2,
      "byteOffset": 3201528,
      "componentType": 5126,
      "count": 274,
      "max": [
        0.9998329877853394,
        0.969907820224762,
        1.0
      ],
      "min": [
        -0.9998317956924438,
        -0.9699186086654663,
        -0.9700728058815002
      ],
      "type": "VEC3"
    },
    {
      "bufferView": 1,
      "byteOffset": 1066464,
      "componentType": 5126,
      "count": 274,
      "max": [
        0.9675400257110596,
        0.9821799993515015
      ],
      "min": [
        0.02466999925673008,
        0.02232000045478344
      ],
      "type": "VEC2"
    },
    {
      "bufferView": 0,
      "byteOffset": 1125564,
      "componentType": 5125,
      "count": 522,
      "type": "SCALAR"
    },
    {
      "bufferView": 2,
      "byteOffset": 3204816,
      "componentType": 5126,
      "count": 4894,
      "max": [
        -2.419450044631958,
        -2.5355799198150635,
        -0.5275400280952454
      ],
      "min": [
        -2.5517499446868896,
        -2.6248199939727783,
        -0.6478899717330933
      ],
      "type": "VEC3"
    },
    {
      "bufferView": 2,
      "byteOffset": 3263544,
      "componentType": 5126,
      "count": 4894,
      "max": [
        0.9998307228088379,
        0.9998315572738647,
        0.9964425563812256
      ],
      "min": [
        -0.9998345375061035,
        -0.9992166757583618,
        -0.9999898076057434
      ],
      "type": "VEC3"
    },
    {
      "bufferView": 1,
      "byteOffset": 1068656,
      "componentType": 5126,
      "count": 4894,
      "max": [
        12.33845043182373,
        14.897820472717285
      ],
      "min": [
        -10.517609596252441,
        -7.8621602058410645
      ],
      "type": "VEC2"
    },
    {
      "bufferView": 0,
      "byteOffset": 1127652,
      "componentType": 5125,
      "count": 7464,
      "type": "SCALAR"
    },
    {
      "bufferView": 2,
      "byteOffset": 3322272,
      "componentType": 5126,
      "count": 360,
      "max": [
        -2.650330066680908,
        -1.7199100255966187,
        0.5558199882507324
      ],
      "min": [
        -3.363409996032715,
        -3.8017499446868896,
        -0.3260599970817566
      ],
      "type": "VEC3"
    },
    {
      "bufferView": 2,
      "byteOffset": 3326592,
      "componentType": 5126,
      "count": 360,
      "max": [
        0.9998313188552856,
        0.9699007868766785,
        0.24284522235393524
      ],
      "min": [
        -0.9998317956924438,
        -0.9699007868766785,
        -0.24284522235393524
      ],
      "type": "VEC3"
    },
    {
      "bufferView": 1,
      "byteOffset": 1107808,
      "componentType": 5126,
      "count": 360,
      "max": [
        1.5657800436019897,
        1.5657800436019897
      ],
      "min": [
        -1.5657800436019897,
        0.0
      ],
      "type": "VEC2"
    },
    {
      "bufferView": 0,
      "byteOffset": 1157508,
      "componentType": 5125,
      "count": 990,
      "type": "SCALAR"
    },
    {
      "bufferView": 2,
      "byteOffset": 3330912,
      "componentType": 5126,
      "count": 960,
      "max": [
        -2.650330066680908,
        -1.7199100255966187,
        0.5558199882507324
      ],
      "min": [
        -3.363409996032715,
        -3.8017499446868896,
        -0.3260599970817566
      ],
      "type": "VEC3"
    },
    {
      "bufferView": 2,
      "byteOffset": 3342432,
      "componentType": 5126,
      "count": 960,
      "max": [
        0.9945884943008423,
        0.9957011938095093,
        0.995887815952301
      ],
      "min": [
        -0.9945761561393738,
        -0.9957543015480042,
        -0.9958959221839905
      ],
      "type": "VEC3"
    },
    {
      "bufferView": 1,
      "byteOffset": 1110688,
      "componentType": 5126,
      "count": 960,
      "max": [
        40.895198822021484,
        1.2096400260925293
      ],
      "min": [
        -40.895198822021484,
        -0.8668199777603149
      ],
      "type": "VEC2"
    },
    {
      "bufferView": 0,
      "byteOffset": 1161468,
      "componentType": 5125,
      "count": 1440,
      "type": "SCALAR"
    },
    {
      "bufferView": 2,
      "byteOffset": 3353952,
      "componentType": 5126,
      "count": 3479,
      "max": [
        -1.2546700239181519,
        -1.3018100261688232,
        0.5558199882507324
      ],
      "min": [
        -3.3554999828338623,
        -3.8015999794006348,
        -0.3260599970817566
      ],
      "type": "VEC3"
    },
    {
      "bufferView": 2,
      "byteOffset": 3395700,
      "componentType": 5126,
      "count": 3479,
      "max": [
        0.9999633431434631,
        0.9956990480422974,
        0.9999720454216003
      ],
      "min": [
        -0.9999867081642151,
        -0.9983791708946228,
        -0.9997181296348572
      ],
      "type": "VEC3"
    },
    {
      "bufferView": 1,
      "byteOffset": 1118368,
      "componentType": 5126,
      "count": 3479,
      "max": [
        48.19742965698242,
        53.04618835449219
      ],
      "min": [
        -47.28110885620117,
        -41.98662185668945
      ],
      "type": "VEC2"
    },
    {
      "bufferView": 0,
      "byteOffset": 1167228,
      "componentType": 5125,
      "count": 5247,
      "type": "SCALAR"
    },
    {
      "bufferView": 2,
      "byteOffset": 3437448,
      "componentType": 5126,
      "count": 1740,
      "max": [
        -2.6484100818634033,
        -1.7109899520874023,
        0.5655999779701233
      ],
      "min": [
        -3.3673698902130127,
        -3.8095500469207764,
        -0.328000009059906
      ],
      "type": "VEC3"
    },
    {
      "bufferView": 2,
      "byteOffset": 3458328,
      "componentType": 5126,
      "count": 1740,
      "max": [
        0.9998317956924438,
        0.9996069073677063,
        0.9700728058815002
      ],
      "min": [
        -0.9998313188552856,
        -0.9699262380599976,
        -0.9998816847801208
      ],
      "type": "VEC3"
    },
    {
      "bufferView": 1,
      "byteOffset": 1146200,
      "componentType": 5126,
      "count": 1740,
      "max": [
        42.125980377197266,
        2.7559099197387695
      ],
      "min": [
        -42.125980377197266,
        -1.124959945678711
      ],
      "type": "VEC2"
    },
    {
      "bufferView": 0,
      "byteOffset": 1188216,
      "componentType": 5125,
      "count": 3300,
      "type": "SCALAR"
    },
    {
      "bufferView": 2,
      "byteOffset": 3479208,
      "componentType": 5126,
      "count": 600,
      "max": [
        -2.6608901023864746,
        -1.7267600297927856,
        0.5608800053596497
      ],
      "min": [
        -3.3541901111602783,
        -3.7891299724578857,
        -0.31404998898506165
      ],
      "type": "VEC3"
    },
    {
      "bufferView": 2,
      "byteOffset": 3486408,
      "componentType": 5126,
      "count": 600,
      "max": [
        0.9956222176551819,
        0.969933271408081,
        0.9700728058815002
      ],
      "min": [
        -0.9956462979316711,
        -0.9699007868766785,
        -0.9664644598960876
      ],
      "type": "VEC3"
    },
    {
      "bufferView": 1,
      "byteOffset": 1160120,
      "componentType": 5126,
      "count": 600,
      "max": [
        40.05261993408203,
        3.212599992752075
      ],
      "min": [
        -39.802669525146484,
        0.11027999967336655
      ],
      "type": "VEC2"
    },
    {
      "bufferView": 0,
      "byteOffset": 1201416,
      "componentType": 5125,
      "count": 1050,
      "type": "SCALAR"
    },
    {
      "bufferView": 2,
      "byteOffset": 3493608,
      "componentType": 5126,
      "count": 1014,
      "max": [
        -3.007810115814209,
        -4.293650150299072,
        0.6565200090408325
      ],
      "min": [
        -3.529670000076294,
        -4.693210124969482,
        0.1890300065279007
      ],
      "type": "VEC3"
    },
    {
      "bufferView": 2,
      "byteOffset": 3505776,
      "componentType": 5126,
      "count": 1014,
      "max": [
        0.9998307228088379,
        0.9967461824417114,
        0.9951283931732178
      ],
      "min": [
        -0.9998317956924438,
        -0.9967503547668457,
        -0.99512779712677
      ],
      "type": "VEC3"
    },
    {
      "bufferView": 1,
      "byteOffset": 1164920,
      "componentType": 5126,
      "count": 1014,
      "max": [
        0.9918500185012817,
        0.9616900086402893
      ],
      "min": [
        0.014290000312030315,
        0.007530000060796738
      ],
      "type": "VEC2"
    },
    {
      "bufferView": 0,
      "byteOffset": 1205616,
      "componentType": 5125,
      "count": 2565,
      "type": "SCALAR"
    },
    {
      "bufferView": 2,
      "byteOffset": 3517944,
      "componentType": 5126,
      "count": 8,
      "max": [
        -1.3343299627304077,
        -1.1570700407028198,
        0.0934000015258789
      ],
      "min": [
        -3.0360798835754395,
        -1.8903199434280396,
        -0.4452599883079529
      ],
      "type": "VEC3"
    },
    {
      "bufferView": 2,
      "byteOffset": 3518040,
      "componentType": 5126,
      "count": 8,
      "max": [
        0.8723551034927368,
        -0.47517821192741394,
        -0.11490198969841003
      ],
      "min": [
        -0.01785038411617279,
        -0.9699007868766785,
        -0.24284522235393524
      ],
      "type": "VEC3"
    },
    {
      "bufferView": 1,
      "byteOffset": 1173032,
      "componentType": 5126,
      "count": 8,
      "max": [
        -4.342160224914551,
        0.9758599996566772
      ],
      "min": [
        -8.327030181884766,
        0.012729999609291553
      ],
      "type": "VEC2"
    },
    {
      "bufferView": 0,
      "byteOffset": 1215876,
      "componentType": 5125,
      "count": 12,
      "type": "SCALAR"
    },
    {
      "bufferView": 2,
      "byteOffset": 3518136,
      "componentType": 5126,
      "count": 36,
      "max": [
        -2.42192006111145,
        -2.577430009841919,
        0.2834100127220154
      ],
      "min": [
        -3.3727900981903076,
        -3.1532199382781982,
        -0.6478899717330933
      ],
      "type": "VEC3"
    },
    {
      "bufferView": 2,
      "byteOffset": 3518568,
      "componentType": 5126,
      "count": 36,
      "max": [
        0.9998307228088379,
        0.24281086027622223,
        0.0
      ],
      "min": [
        -0.9998307228088379,
        -0.018400197848677635,
        -0.9700634479522705
      ],
      "type": "VEC3"
    },
    {
      "bufferView": 1,
      "byteOffset": 1173096,
      "componentType": 5126,
      "count": 36,
      "max": [
        69.9803237915039,
        11.592350006103516
      ],
      "min": [
        -63.04309844970703,
        -9.330710411071777
      ],
      "type": "VEC2"
    },
    {
      "bufferView": 0,
      "byteOffset": 1215924,
      "componentType": 5125,
      "count": 84,
      "type": "SCALAR"
    },
    {
      "bufferView": 2,
      "byteOffset": 3519000,
      "componentType": 5126,
      "count": 886,
      "max": [
        -2.5338199138641357,
        -1.1298799514770508,
        1.5854400396347046
      ],
      "min": [
        -2.9599199295043945,
        -1.6114399433135986,
        1.0098299980163574
      ],
      "type": "VEC3"
    },
    {
      "bufferView": 2,
      "byteOffset": 3529632,
      "componentType": 5126,
      "count": 886,
      "max": [
        0.9993687272071838,
        0.9871576428413391,
        0.993773877620697
      ],
      "min": [
        -0.9993687272071838,
        -0.9871576428413391,
        -0.993773877620697
      ],
      "type": "VEC3"
    },
    {
      "bufferView": 1,
      "byteOffset": 1173384,
      "componentType": 5126,
      "count": 886,
      "max": [
        0.9830899834632874,
        0.9923999905586243
      ],
      "min": [
        0.018230000510811806,
        -0.06864999979734421
      ],
      "type": "VEC2"
    },
    {
      "bufferView": 0,
      "byteOffset": 1216260,
      "componentType": 5125,
      "count": 2649,
      "type": "SCALAR"
    },
    {
      "bufferView": 2,
      "byteOffset": 3540264,
      "componentType": 5126,
      "count": 64,
      "max": [
        -2.699120044708252,
        -2.7814600467681885,
        -0.24940000474452972
      ],
      "min": [
        -2.912290096282959,
        -3.7917399406433105,
        -0.9291399717330933
      ],
      "type": "VEC3"
    },
    {
      "bufferView": 2,
      "byteOffset": 3541032,
      "componentType": 5126,
      "count": 64,
      "max": [
        0.9998307228088379,
        0.9699007868766785,
        0.9700634479522705
      ],
      "min": [
        -0.9998307228088379,
        -0.9699013829231262,
        -0.9700634479522705
      ],
      "type": "VEC3"
    },
    {
      "bufferView": 1,
      "byteOffset": 1180472,
      "componentType": 5126,
      "count": 64,
      "max": [
        2.9462199211120605,
        7.651209831237793
      ],
      "min": [
        -9.782549858093262,
        0.0
      ],
      "type": "VEC2"
    },
    {
      "bufferView": 0,
      "byteOffset": 1226856,
      "componentType": 5125,
      "count": 96,
      "type": "SCALAR"
    },
    {
      "bufferView": 2,
      "byteOffset": 3541800,
      "componentType": 5126,
      "count": 28,
      "max": [
        -2.6173601150512695,
        -3.3049800395965576,
        -0.16449999809265137
      ],
      "min": [
        -2.7149300575256348,
        -3.847059965133667,
        -0.6974499821662903
      ],
      "type": "VEC3"
    },
    {
      "bufferView": 2,
      "byteOffset": 3542136,
      "componentType": 5126,
      "count": 28,
      "max": [
        0.9998307228088379,
        0.9699013829231262,
        0.9700634479522705
      ],
      "min": [
        -0.9998307228088379,
        -0.9699007868766785,
        -0.9700634479522705
      ],
      "type": "VEC3"
    },
    {
      "bufferView": 1,
      "byteOffset": 1180984,
      "componentType": 5126,
      "count": 28,
      "max": [
        5.024330139160156,
        13.062999725341797
      ],
      "min": [
        -4.465270042419434,
        9.934650421142578
      ],
      "type": "VEC2"
    },
    {
      "bufferView": 0,
      "byteOffset": 1227240,
      "componentType": 5125,
      "count": 42,
      "type": "SCALAR"
    },
    {
      "bufferView": 2,
      "byteOffset": 3542472,
      "componentType": 5126,
      "count": 4604,
      "max": [
        -1.2577099800109863,
        -1.2959500551223755,
        0.11462000012397766
      ],
      "min": [
        -1.26364004611969,
        -1.3031200170516968,
        0.10794000327587128
      ],
      "type": "VEC3"
    },
    {
      "bufferView": 2,
      "byteOffset": 3597720,
      "componentType": 5126,
      "count": 4604,
      "max": [
        0.9998396635055542,
        0.9997515678405762,
        0.9932466149330139
      ],
      "min": [
        -0.9998465776443481,
        -0.9996566772460938,
        -0.9999061226844788
      ],
      "type": "VEC3"
    },
    {
      "bufferView": 1,
      "byteOffset": 1181208,
      "componentType": 5126,
      "count": 4604,
      "max": [
        29.248659133911133,
        31.952640533447266
      ],
      "min": [
        -29.798709869384766,
        -22.44253921508789
      ],
      "type": "VEC2"
    },
    {
      "bufferView": 0,
      "byteOffset": 1227408,
      "componentType": 5125,
      "count": 7068,
      "type": "SCALAR"
    },
    {
      "bufferView": 2,
      "byteOffset": 3652968,
      "componentType": 5126,
      "count": 3004,
      "max": [
        -1.2526400089263916,
        -1.2908600568771362,
        0.12064000219106674
      ],
      "min": [
        -1.2684600353240967,
        -1.3018800020217896,
        0.10507000237703323
      ],
      "type": "VEC3"
    },
    {
      "bufferView": 2,
      "byteOffset": 3689016,
      "componentType": 5126,
      "count": 3004,
      "max": [
        0.9998323917388916,
        0.969982385635376,
        0.9700871706008911
      ],
      "min": [
        -0.9998323917388916,
        -0.9997575879096985,
        -0.9986194372177124
      ],
      "type": "VEC3"
    },
    {
      "bufferView": 1,
      "byteOffset": 1218040,
      "componentType": 5126,
      "count": 3004,
      "max": [
        3.7281200885772705,
        3.743910074234009
      ],
      "min": [
        -3.2632899284362793,
        -2.9131999015808105
      ],
      "type": "VEC2"
    },
    {
      "bufferView": 0,
      "byteOffset": 1255680,
      "componentType": 5125,
      "count": 4998,
      "type": "SCALAR"
    },
    {
      "bufferView": 2,
      "byteOffset": 3725064,
      "componentType": 5126,
      "count": 1230,
      "max": [
        -3.171299934387207,
        -3.014240026473999,
        0.30041998624801636
      ],
      "min": [
        -3.3893399238586426,
        -3.151020050048828,
        -0.07963000237941742
      ],
      "type": "VEC3"
    },
    {
      "bufferView": 2,
      "byteOffset": 3739824,
      "componentType": 5126,
      "count": 1230,
      "max": [
        0.9998455047607422,
        0.9873307943344116,
        0.9814366102218628
      ],
      "min": [
        -0.9998504519462585,
        -0.9870917797088623,
        -0.9815267324447632
      ],
      "type": "VEC3"
    },
    {
      "bufferView": 1,
      "byteOffset": 1242072,
      "componentType": 5126,
      "count": 1230,
      "max": [
        11.821200370788574,
        20.910600662231445
      ],
      "min": [
        -11.821200370788574,
        0.0
      ],
      "type": "VEC2"
    },
    {
      "bufferView": 0,
      "byteOffset": 1275672,
      "componentType": 5125,
      "count": 2268,
      "type": "SCALAR"
    },
    {
      "bufferView": 2,
      "byteOffset": 3754584,
      "componentType": 5126,
      "count": 384,
      "max": [
        -2.4325900077819824,
        -2.636579990386963,
        -0.4416100084781647
      ],
      "min": [
        -2.4546399116516113,
        -2.6579699516296387,
        -0.46340999007225037
      ],
      "type": "VEC3"
    },
    {
      "bufferView": 2,
      "byteOffset": 3759192,
      "componentType": 5126,
      "count": 384,
      "max": [
        0.9982015490531921,
        0.9995952844619751,
        0.18247255682945251
      ],
      "min": [
        -0.9976527690887451,
        -0.9531028270721436,
        -0.6636688709259033
      ],
      "type": "VEC3"
    },
    {
      "bufferView": 1,
      "byteOffset": 1251912,
      "componentType": 5126,
      "count": 384,
      "max": [
        6.056739807128906,
        6.435999870300293
      ],
      "min": [
        -3.2250499725341797,
        -3.520699977874756
      ],
      "type": "VEC2"
    },
    {
      "bufferView": 0,
      "byteOffset": 1284744,
      "componentType": 5125,
      "count": 576,
      "type": "SCALAR"
    },
    {
      "bufferView": 2,
      "byteOffset": 3763800,
      "componentType": 5126,
      "count": 112,
      "max": [
        -3.190310001373291,
        -3.047960042953491,
        0.27195999026298523
      ],
      "min": [
        -3.369149923324585,
        -3.146250009536743,
        -0.07944999635219574
      ],
      "type": "VEC3"
    },
    {
      "bufferView": 2,
      "byteOffset": 3765144,
      "componentType": 5126,
      "count": 112,
      "max": [
        0.18986409902572632,
        0.9873189330101013,
        0.40224260091781616
      ],
      "min": [
        -0.1678822636604309,
        -0.9869691133499146,
        -0.24284522235393524
      ],
      "type": "VEC3"
    },
    {
      "bufferView": 1,
      "byteOffset": 1254984,
      "componentType": 5126,
      "count": 112,
      "max": [
        44.46665954589844,
        12.759309768676758
      ],
      "min": [
        -10.775400161743164,
        -16.650239944458008
      ],
      "type": "VEC2"
    },
    {
      "bufferView": 0,
      "byteOffset": 1287048,
      "componentType": 5125,
      "count": 276,
      "type": "SCALAR"
    },
    {
      "bufferView": 2,
      "byteOffset": 3766488,
      "componentType": 5126,
      "count": 168,
      "max": [
        -2.6640400886535645,
        -2.8671300411224365,
        -0.16478000581264496
      ],
      "min": [
        -2.6955599784851074,
        -3.885580062866211,
        -0.5419999957084656
      ],
      "type": "VEC3"
    },
    {
      "bufferView": 2,
      "byteOffset": 3768504,
      "componentType": 5126,
      "count": 168,
      "max": [
        0.9998307228088379,
        0.9699007868766785,
        0.9700634479522705
      ],
      "min": [
        -0.9998307228088379,
        -0.9699007868766785,
        -0.9700634479522705
      ],
      "type": "VEC3"
    },
    {
      "bufferView": 1,
      "byteOffset": 1255880,
      "componentType": 5126,
      "count": 168,
      "max": [
        20.01633071899414,
        7.0137200355529785
      ],
      "min": [
        -0.6984599828720093,
        1.7075599431991577
      ],
      "type": "VEC2"
    },
    {
      "bufferView": 0,
      "byteOffset": 1288152,
      "componentType": 5125,
      "count": 324,
      "type": "SCALAR"
    }
  ],
  "asset": {
    "extras": {
      "author": "omarme37 (https://sketchfab.com/omarme37)",
      "license": "CC-BY-4.0 (http://creativecommons.org/licenses/by/4.0/)",
      "source": "https://sketchfab.com/3d-models/scean-arab-30e831ee8aa44716a4365f6ebbdf3c83",
      "title": "Scean Arab"
    },
    "generator": "Sketchfab-12.68.0",
    "version": "2.0"
  },
  "bufferViews": [
    {
      "buffer": 0,
      "byteLength": 1289448,
      "name": "floatBufferViews",
      "target": 34963
    },
    {
      "buffer": 0,
      "byteLength": 1257224,
      "byteOffset": 1289448,
      "byteStride": 8,
      "name": "floatBufferViews",
      "target": 34962
    },
    {
      "buffer": 0,
      "byteLength": 3770520,
      "byteOffset": 2546672,
      "byteStride": 12,
      "name": "floatBufferViews",
      "target": 34962
    }
  ],
  "buffers": [
    {
      "byteLength": 6317192,
      "uri": "scene.bin"
    }
  ],
  "images": [
    {
      "uri": "textures/wall_baseColor.jpeg"
    },
    {
      "uri": "textures/wall3_jp_baseColor.jpeg"
    },
    {
      "uri": "textures/blat_baseColor.png"
    },
    {
      "uri": "textures/auto_6_baseColor.jpeg"
    },
    {
      "uri": "textures/metal_gl_baseColor.jpeg"
    },
    {
      "uri": "textures/wall_nbs_baseColor.jpeg"
    },
    {
      "uri": "textures/material_baseColor.jpeg"
    },
    {
      "uri": "textures/bram_baseColor.jpeg"
    },
    {
      "uri": "textures/auto_4_baseColor.jpeg"
    },
    {
      "uri": "textures/tank_bla_baseColor.jpeg"
    },
    {
      "uri": "textures/auto_baseColor.jpeg"
    },
    {
      "uri": "textures/auto_5_baseColor.jpeg"
    },
    {
      "uri": "textures/material_21_baseColor.jpeg"
    },
    {
      "uri": "textures/material_24_baseColor.jpeg"
    },
    {
      "uri": "textures/dcan_baseColor.jpeg"
    },
    {
      "uri": "textures/Wood_Ve_baseColor.jpeg"
    },
    {
      "uri": "textures/material_30_baseColor.jpeg"
    },
    {
      "uri": "textures/Rollup_D_baseColor.jpeg"
    }
  ],
  "materials": [
    {
      "doubleSided": true,
      "name": "Material.001",
      "pbrMetallicRoughness": {
        "baseColorFactor": [
          0.0374094881,
          0.0374094881,
          0.0374094881,
          1.0
        ],
        "metallicFactor": 0.0,
        "roughnessFactor": 0.6
      }
    },
    {
      "doubleSided": true,
      "name": "wall",
      "pbrMetallicRoughness": {
        "baseColorTexture": {
          "index": 0
        },
        "metallicFactor": 0.0,
        "roughnessFactor": 0.0
      }
    },
    {
      "doubleSided": true,
      "name": "wall3_jp",
      "pbrMetallicRoughness": {
        "baseColorTexture": {
          "index": 1
        },
        "metallicFactor": 0.0,
        "roughnessFactor": 0.6
      }
    },
    {
      "alphaMode": "BLEND",
      "doubleSided": true,
      "name": "blat",
      "pbrMetallicRoughness": {
        "baseColorTexture": {
          "index": 2
        },
        "metallicFactor": 0.7061845311578715,
        "roughnessFactor": 0.341404656944035
      }
    },
    {
      "doubleSided": true,
      "name": "Color_01",
      "pbrMetallicRoughness": {
        "baseColorFactor": [
          0.741176486,
          0.7529411912,
          0.8117647171,
          1.0
        ],
        "metallicFactor": 0.0,
        "roughnessFactor": 0.6
      }
    },
    {
      "doubleSided": true,
      "name": "auto_6",
      "pbrMetallicRoughness": {
        "baseColorTexture": {
          "index": 3
        },
        "metallicFactor": 0.0,
        "roughnessFactor": 0.6
      }
    },
    {
      "doubleSided": true,
      "name": "metal_gl",
      "pbrMetallicRoughness": {
        "baseColorTexture": {
          "index": 4
        },
        "metallicFactor": 0.0,
        "roughnessFactor": 0.6
      }
    },
    {
      "doubleSided": true,
      "name": "windos",
      "pbrMetallicRoughness": {
        "baseColorFactor": [
          0.7372549176,
          0.8196078539,
          0.8078431487,
          1.0
        ],
        "metallicFactor": 0.0,
        "roughnessFactor": 0.4546122041138463
      }
    },
    {
      "doubleSided": true,
      "name": "wall_nbs",
      "pbrMetallicRoughness": {
        "baseColorTexture": {
          "index": 5
        },
        "metallicFactor": 0.01436063178680228,
        "roughnessFactor": 0.24706503430252555
      }
    },
    {
      "doubleSided": true,
      "name": "material",
      "pbrMetallicRoughness": {
        "baseColorTexture": {
          "index": 6
        },
        "metallicFactor": 0.5112159777,
        "roughnessFactor": 0.1149895626
      }
    },
    {
      "doubleSided": true,
      "name": "bram",
      "pbrMetallicRoughness": {
        "baseColorTexture": {
          "index": 7
        },
        "metallicFactor": 0.0,
        "roughnessFactor": 0.6
      }
    },
    {
      "doubleSided": true,
      "name": "auto_4",
      "pbrMetallicRoughness": {
        "baseColorTexture": {
          "index": 8
        },
        "metallicFactor": 0.0,
        "roughnessFactor": 0.6
      }
    },
    {
      "doubleSided": true,
      "name": "tank_bla",
      "pbrMetallicRoughness": {
        "baseColorTexture": {
          "index": 9
        },
        "metallicFactor": 0.0,
        "roughnessFactor": 0.6
      }
    },
    {
      "doubleSided": true,
      "name": "auto",
      "pbrMetallicRoughness": {
        "baseColorTexture": {
          "index": 10
        },
        "metallicFactor": 0.0,
        "roughnessFactor": 0.6
      }
    },
    {
      "doubleSided": true,
      "name": "Glass_Bl",
      "pbrMetallicRoughness": {
        "baseColorFactor": [
          0.3921568692,
          0.5843137503,
          0.9294117689,
          1.0
        ],
        "metallicFactor": 0.0,
        "roughnessFactor": 0.6
      }
    },
    {
      "doubleSided": true,
      "name": "CoolG01",
      "pbrMetallicRoughness": {
        "baseColorFactor": [
          0.9764705896,
          0.980392158,
          1.0,
          1.0
        ],
        "metallicFactor": 0.0,
        "roughnessFactor": 0.6
      }
    },
    {
      "doubleSided": true,
      "name": "Stacy_Sk",
      "pbrMetallicRoughness": {
        "baseColorFactor": [
          0.6000000238,
          0.6000000238,
          0.6000000238,
          1.0
        ],
        "metallicFactor": 0.0,
        "roughnessFactor": 0.6
      }
    },
    {
      "doubleSided": true,
      "emissiveFactor": [
        1.0,
        1.0,
        1.0
      ],
      "name": "Color_A0",
      "pbrMetallicRoughness": {
        "baseColorFactor": [
          0.9764705896,
          0.9254902005,
          0.8392156959,
          1.0
        ],
        "metallicFactor": 0.0,
        "roughnessFactor": 0.6
      }
    },
    {
      "doubleSided": true,
      "name": "CoolGra",
      "pbrMetallicRoughness": {
        "baseColorFactor": [
          0.8117647171,
          0.8117647171,
          0.8274509907,
          1.0
        ],
        "metallicFactor": 0.0,
        "roughnessFactor": 0.6
      }
    },
    {
      "doubleSided": true,
      "name": "Blue_3",
      "pbrMetallicRoughness": {
        "baseColorFactor": [
          0.0274509806,
          0.400000006,
          0.6941176653,
          1.0
        ],
        "metallicFactor": 0.0,
        "roughnessFactor": 0.6
      }
    },
    {
      "doubleSided": true,
      "name": "auto_5",
      "pbrMetallicRoughness": {
        "baseColorTexture": {
          "index": 11
        },
        "metallicFactor": 0.0,
        "roughnessFactor": 0.6
      }
    },
    {
      "doubleSided": true,
      "name": "material_21",
      "pbrMetallicRoughness": {
        "baseColorTexture": {
          "index": 12
        },
        "metallicFactor": 0.0,
        "roughnessFactor": 0.6
      }
    },
    {
      "doubleSided": true,
      "name": "FrontCol",
      "pbrMetallicRoughness": {
        "metallicFactor": 0.0,
        "roughnessFactor": 0.6
      }
    },
    {
      "doubleSided": true,
      "name": "auto_1",
      "pbrMetallicRoughness": {
        "baseColorTexture": {
          "index": 8
        },
        "metallicFactor": 0.0,
        "roughnessFactor": 0.6
      }
    },
    {
      "doubleSided": true,
      "name": "material_24",
      "pbrMetallicRoughness": {
        "baseColorTexture": {
          "index": 13
        },
        "metallicFactor": 0.0,
        "roughnessFactor": 0.6
      }
    },
    {
      "doubleSided": true,
      "name": "dcan",
      "pbrMetallicRoughness": {
        "baseColorTexture": {
          "index": 14
        },
        "metallicFactor": 0.0,
        "roughnessFactor": 0.6
      }
    },
    {
      "doubleSided": true,
      "name": "Color_C0",
      "pbrMetallicRoughness": {
        "baseColorFactor": [
          0.6980392337,
          0.6980392337,
          0.6980392337,
          1.0
        ],
        "metallicFactor": 0.0,
        "roughnessFactor": 0.6
      }
    },
    {
      "doubleSided": true,
      "name": "Color_A",
      "pbrMetallicRoughness": {
        "baseColorFactor": [
          0.8392156959,
          0.8352941275,
          0.8196078539,
          1.0
        ],
        "metallicFactor": 0.0,
        "roughnessFactor": 0.6
      }
    },
    {
      "doubleSided": true,
      "name": "Wood_Ve",
      "pbrMetallicRoughness": {
        "baseColorTexture": {
          "index": 15
        },
        "metallicFactor": 0.0,
        "roughnessFactor": 0.6
      }
    },
    {
      "doubleSided": true,
      "name": "Color_E0",
      "pbrMetallicRoughness": {
        "baseColorFactor": [
          0.4549019635,
          0.2078431398,
          0.0823529437,
          1.0
        ],
        "metallicFactor": 0.0,
        "roughnessFactor": 0.6
      }
    },
    {
      "doubleSided": true,
      "name": "material_30",
      "pbrMetallicRoughness": {
        "baseColorTexture": {
          "index": 16
        },
        "metallicFactor": 0.0,
        "roughnessFactor": 0.6
      }
    },
    {
      "doubleSided": true,
      "name": "Rollup_D",
      "pbrMetallicRoughness": {
        "baseColorTexture": {
          "index": 17
        },
        "metallicFactor": 0.0,
        "roughnessFactor": 0.6
      }
    }
  ],
  "meshes": [
    {
      "name": "Plane.001_0",
      "primitives": [
        {
          "attributes": {
            "NORMAL": 1,
            "POSITION": 0,
            "TEXCOORD_0": 2
          },
          "indices": 3,
          "material": 0,
          "mode": 4
        }
      ]
    },
    {
      "name": "Plane.001_1",
      "primitives": [
        {
          "attributes": {
            "NORMAL": 5,
            "POSITION": 4,
            "TEXCOORD_0": 6
          },
          "indices": 7,
          "material": 1,
          "mode": 4
        }
      ]
    },
    {
      "name": "Plane.001_2",
      "primitives": [
        {
          "attributes": {
            "NORMAL": 9,
            "POSITION": 8,
            "TEXCOORD_0": 10
          },
          "indices": 11,
          "material": 2,
          "mode": 4
        }
      ]
    },
    {
      "name": "Plane.001_3",
      "primitives": [
        {
          "attributes": {
            "NORMAL": 13,
            "POSITION": 12,
            "TEXCOORD_0": 14,
            "TEXCOORD_1": 15
          },
          "indices": 16,
          "material": 3,
          "mode": 4
        }
      ]
    },
    {
      "name": "Plane.001_4",
      "primitives": [
        {
          "attributes": {
            "NORMAL": 18,
            "POSITION": 17,
            "TEXCOORD_0": 19
          },
          "indices": 20,
          "material": 4,
          "mode": 4
        }
      ]
    },
    {
      "name": "Plane.001_5",
      "primitives": [
        {
          "attributes": {
            "NORMAL": 22,
            "POSITION": 21,
            "TEXCOORD_0": 23
          },
          "indices": 24,
          "material": 5,
          "mode": 4
        }
      ]
    },
    {
      "name": "Plane.001_6",
      "primitives": [
        {
          "attributes": {
            "NORMAL": 26,
            "POSITION": 25,
            "TEXCOORD_0": 27
          },
          "indices": 28,
          "material": 6,
          "mode": 4
        }
      ]
    },
    {
      "name": "Plane.001_7",
      "primitives": [
        {
          "attributes": {
            "NORMAL": 30,
            "POSITION": 29,
            "TEXCOORD_0": 31
          },
          "indices": 32,
          "material": 7,
          "mode": 4
        }
      ]
    },
    {
      "name": "Plane.001_8",
      "primitives": [
        {
          "attributes": {
            "NORMAL": 34,
            "POSITION": 33,
            "TEXCOORD_0": 35
          },
          "indices": 36,
          "material": 8,
          "mode": 4
        }
      ]
    },
    {
      "name": "Plane.001_9",
      "primitives": [
        {
          "attributes": {
            "NORMAL": 38,
            "POSITION": 37,
            "TEXCOORD_0": 39
          },
          "indices": 40,
          "material": 9,
          "mode": 4
        }
      ]
    },
    {
      "name": "Plane.001_9",
      "primitives": [
        {
          "attributes": {
            "NORMAL": 42,
            "POSITION": 41,
            "TEXCOORD_0": 43
          },
          "indices": 44,
          "material": 9,
          "mode": 4
        }
      ]
    },
    {
      "name": "Plane.001_10",
      "primitives": [
        {
          "attributes": {
            "NORMAL": 46,
            "POSITION": 45,
            "TEXCOORD_0": 47
          },
          "indices": 48,
          "material": 10,
          "mode": 4
        }
      ]
    },
    {
      "name": "Plane.001_11",
      "primitives": [
        {
          "attributes": {
            "NORMAL": 50,
            "POSITION": 49,
            "TEXCOORD_0": 51
          },
          "indices": 52,
          "material": 11,
          "mode": 4
        }
      ]
    },
    {
      "name": "Plane.001_12",
      "primitives": [
        {
          "attributes": {
            "NORMAL": 54,
            "POSITION": 53,
            "TEXCOORD_0": 55
          },
          "indices": 56,
          "material": 12,
          "mode": 4
        }
      ]
    },
    {
      "name": "Plane.001_13",
      "primitives": [
        {
          "attributes": {
            "NORMAL": 58,
            "POSITION": 57,
            "TEXCOORD_0": 59
          },
          "indices": 60,
          "material": 13,
          "mode": 4
        }
      ]
    },
    {
      "name": "Plane.001_14",
      "primitives": [
        {
          "attributes": {
            "NORMAL": 62,
            "POSITION": 61,
            "TEXCOORD_0": 63
          },
          "indices": 64,
          "material": 14,
          "mode": 4
        }
      ]
    },
    {
      "name": "Plane.001_15",
      "primitives": [
        {
          "attributes": {
            "NORMAL": 66,
            "POSITION": 65,
            "TEXCOORD_0": 67
          },
          "indices": 68,
          "material": 15,
          "mode": 4
        }
      ]
    },
    {
      "name": "Plane.001_16",
      "primitives": [
        {
          "attributes": {
            "NORMAL": 70,
            "POSITION": 69,
            "TEXCOORD_0": 71
          },
          "indices": 72,
          "material": 16,
          "mode": 4
        }
      ]
    },
    {
      "name": "Plane.001_17",
      "primitives": [
        {
          "attributes": {
            "NORMAL": 74,
            "POSITION": 73,
            "TEXCOORD_0": 75
          },
          "indices": 76,
          "material": 17,
          "mode": 4
        }
      ]
    },
    {
      "name": "Plane.001_18",
      "primitives": [
        {
          "attributes": {
            "NORMAL": 78,
            "POSITION": 77,
            "TEXCOORD_0": 79
          },
          "indices": 80,
          "material": 18,
          "mode": 4
        }
      ]
    },
    {
      "name": "Plane.001_19",
      "primitives": [
        {
          "attributes": {
            "NORMAL": 82,
            "POSITION": 81,
            "TEXCOORD_0": 83
          },
          "indices": 84,
          "material": 19,
          "mode": 4
        }
      ]
    },
    {
      "name": "Plane.001_20",
      "primitives": [
        {
          "attributes": {
            "NORMAL": 86,
            "POSITION": 85,
            "TEXCOORD_0": 87
          },
          "indices": 88,
          "material": 20,
          "mode": 4
        }
      ]
    },
    {
      "name": "Plane.001_21",
      "primitives": [
        {
          "attributes": {
            "NORMAL": 90,
            "POSITION": 89,
            "TEXCOORD_0": 91
          },
          "indices": 92,
          "material": 21,
          "mode": 4
        }
      ]
    },
    {
      "name": "Plane.001_22",
      "primitives": [
        {
          "attributes": {
            "NORMAL": 94,
            "POSITION": 93,
            "TEXCOORD_0": 95
          },
          "indices": 96,
          "material": 22,
          "mode": 4
        }
      ]
    },
    {
      "name": "Plane.001_23",
      "primitives": [
        {
          "attributes": {
            "NORMAL": 98,
            "POSITION": 97,
            "TEXCOORD_0": 99
          },
          "indices": 100,
          "material": 23,
          "mode": 4
        }
      ]
    },
    {
      "name": "Plane.001_24",
      "primitives": [
        {
          "attributes": {
            "NORMAL": 102,
            "POSITION": 101,
            "TEXCOORD_0": 103
          },
          "indices": 104,
          "material": 24,
          "mode": 4
        }
      ]
    },
    {
      "name": "Plane.001_25",
      "primitives": [
        {
          "attributes": {
            "NORMAL": 106,
            "POSITION": 105,
            "TEXCOORD_0": 107
          },
          "indices": 108,
          "material": 25,
          "mode": 4
        }
      ]
    },
    {
      "name": "Plane.001_26",
      "primitives": [
        {
          "attributes": {
            "NORMAL": 110,
            "POSITION": 109,
            "TEXCOORD_0": 111
          },
          "indices": 112,
          "material": 26,
          "mode": 4
        }
      ]
    },
    {
      "name": "Plane.001_27",
      "primitives": [
        {
          "attributes": {
            "NORMAL": 114,
            "POSITION": 113,
            "TEXCOORD_0": 115
          },
          "indices": 116,
          "material": 27,
          "mode": 4
        }
      ]
    },
    {
      "name": "Plane.001_28",
      "primitives": [
        {
          "attributes": {
            "NORMAL": 118,
            "POSITION": 117,
            "TEXCOORD_0": 119
          },
          "indices": 120,
          "material": 28,
          "mode": 4
        }
      ]
    },
    {
      "name": "Plane.001_29",
      "primitives": [
        {
          "attributes": {
            "NORMAL": 122,
            "POSITION": 121,
            "TEXCOORD_0": 123
          },
          "indices": 124,
          "material": 29,
          "mode": 4
        }
      ]
    },
    {
      "name": "Plane.001_30",
      "primitives": [
        {
          "attributes": {
            "NORMAL": 126,
            "POSITION": 125,
            "TEXCOORD_0": 127
          },
          "indices": 128,
          "material": 30,
          "mode": 4
        }
      ]
    },
    {
      "name": "Plane.001_31",
      "primitives": [
        {
          "attributes": {
            "NORMAL": 130,
            "POSITION": 129,
            "TEXCOORD_0": 131
          },
          "indices": 132,
          "material": 31,
          "mode": 4
        }
      ]
    }
  ],
  "nodes": [
    {
      "children": [
        1
      ],
      "matrix": [
        1.0,
        0.0,
        0.0,
        0.0,
        0.0,
        2.220446049250313e-16,
        -1.0,
        0.0,
        0.0,
        1.0,
        2.220446049250313e-16,
        0.0,
        0.0,
        0.0,
        0.0,
        1.0
      ],
      "name": "Sketchfab_model"
    },
    {
      "children": [
        2,
        4
      ],
      "name": "Root"
    },
    {
      "children": [
        3
      ],
      "matrix": [
        0.90432,
        -0.42356000000000005,
        -0.05290000000000001,
        0.0,
        0.37572000000000005,
        0.73106,
        0.56955,
        0.0,
        -0.20256000000000002,
        -0.53493,
        0.82026,
        0.0,
        3.0476900000000002,
        -1.2016599999999997,
        5.903860000000001,
        1.0
      ],
      "name": "Lamp"
    },
    {
      "name": "Lamp"
    },
    {
      "children": [
        5,
        6,
        7,
        8,
        9,
        10,
        11,
        12,
        13,
        14,
        15,
        16,
        17,
        18,
        19,
        20,
        21,
        22,
        23,
        24,
        25,
        26,
        27,
        28,
        29,
        30,
        31,
        32,
        33,
        34,
        35,
        36,
        37
      ],
      "matrix": [
        -0.017450000000000007,
        -0.99985,
        0.0,
        0.0,
        0.9699200000000001,
        -0.016930000000000004,
        -0.24281000000000003,
        0.0,
        0.24278000000000002,
        -0.004240000000000001,
        0.97007,
        0.0,
        5.590929999999999,
        0.5107900000000001,
        0.28525,
        1.0
      ],
      "name": "Plane.001"
    },
    {
      "mesh": 0,
      "name": "Plane.001_0"
    },
    {
      "mesh": 1,
      "name": "Plane.001_1"
    },
    {
      "mesh": 2,
      "name": "Plane.001_2"
    },
    {
      "mesh": 3,
      "name": "Plane.001_3"
    },
    {
      "mesh": 4,
      "name": "Plane.001_4"
    },
    {
      "mesh": 5,
      "name": "Plane.001_5"
    },
    {
      "mesh": 6,
      "name": "Plane.001_6"
    },
    {
      "mesh": 7,
      "name": "Plane.001_7"
    },
    {
      "mesh": 8,
      "name": "Plane.001_8"
    },
    {
      "mesh": 9,
      "name": "Plane.001_9"
    },
    {
      "mesh": 10,
      "name": "Plane.001_9"
    },
    {
      "mesh": 11,
      "name": "Plane.001_10"
    },
    {
      "mesh": 12,
      "name": "Plane.001_11"
    },
    {
      "mesh": 13,
      "name": "Plane.001_12"
    },
    {
      "mesh": 14,
      "name": "Plane.001_13"
    },
    {
      "mesh": 15,
      "name": "Plane.001_14"
    },
    {
      "mesh": 16,
      "name": "Plane.001_15"
    },
    {
      "mesh": 17,
      "name": "Plane.001_16"
    },
    {
      "mesh": 18,
      "name": "Plane.001_17"
    },
    {
      "mesh": 19,
      "name": "Plane.001_18"
    },
    {
      "mesh": 20,
      "name": "Plane.001_19"
    },
    {
      "mesh": 21,
      "name": "Plane.001_20"
    },
    {
      "mesh": 22,
      "name": "Plane.001_21"
    },
    {
      "mesh": 23,
      "name": "Plane.001_22"
    },
    {
      "mesh": 24,
      "name": "Plane.001_23"
    },
    {
      "mesh": 25,
      "name": "Plane.001_24"
    },
    {
      "mesh": 26,
      "name": "Plane.001_25"
    },
    {
      "mesh": 27,
      "name": "Plane.001_26"
    },
    {
      "mesh": 28,
      "name": "Plane.001_27"
    },
    {
      "mesh": 29,
      "name": "Plane.001_28"
    },
    {
      "mesh": 30,
      "name": "Plane.001_29"
    },
    {
      "mesh": 31,
      "name": "Plane.001_30"
    },
    {
      "mesh": 32,
      "name": "Plane.001_31"
    }
  ],
  "samplers": [
    {
      "magFilter": 9729,
      "minFilter": 9987,
      "wrapS": 10497,
      "wrapT": 10497
    }
  ],
  "scene": 0,
  "scenes": [
    {
      "name": "Sketchfab_Scene",
      "nodes": [
        0
      ]
    }
  ],
  "textures": [
    {
      "sampler": 0,
      "source": 0
    },
    {
      "sampler": 0,
      "source": 1
    },
    {
      "sampler": 0,
      "source": 2
    },
    {
      "sampler": 0,
      "source": 3
    },
    {
      "sampler": 0,
      "source": 4
    },
    {
      "sampler": 0,
      "source": 5
    },
    {
      "sampler": 0,
      "source": 6
    },
    {
      "sampler": 0,
      "source": 7
    },
    {
      "sampler": 0,
      "source": 8
    },
    {
      "sampler": 0,
      "source": 9
    },
    {
      "sampler": 0,
      "source": 10
    },
    {
      "sampler": 0,
      "source": 11
    },
    {
      "sampler": 0,
      "source": 12
    },
    {
      "sampler": 0,
      "source": 13
    },
    {
      "sampler": 0,
      "source": 14
    },
    {
      "sampler": 0,
      "source": 15
    },
    {
      "sampler": 0,
      "source": 16
    },
    {
      "sampler": 0,
      "source": 17
    }
  ]
}
