{
  "accessors": [
    {
      "bufferView": 2,
      "componentType": 5126,
      "count": 16877,
      "max": [
        186.67984008789063,
        181.94256591796875,
        285.7333679199219
      ],
      "min": [
        -171.06971740722656,
        -228.34033203125,
        -16.790430068969727
      ],
      "type": "VEC3"
    },
    {
      "bufferView": 2,
      "byteOffset": 202524,
      "componentType": 5126,
      "count": 16877,
      "max": [
        1.0,
        1.0,
        1.0
      ],
      "min": [
        -1.0,
        -1.0,
        -1.0
      ],
      "type": "VEC3"
    },
    {
      "bufferView": 1,
      "componentType": 5126,
      "count": 16877,
      "max": [
        0.9916639924049377,
        0.9937766790390015
      ],
      "min": [
        0.0062072621658444405,
        0.006223320960998535
      ],
      "type": "VEC2"
    },
    {
      "bufferView": 0,
      "componentType": 5125,
      "count": 40191,
      "type": "SCALAR"
    }
  ],
  "asset": {
    "extras": {
      "author": "propmaker1 (https://sketchfab.com/menX1151)",
      "license": "CC-BY-4.0 (http://creativecommons.org/licenses/by/4.0/)",
      "source": "https://sketchfab.com/3d-models/kitchen-in-rent-flat-free-3d-scene-static-99efaca4c79f48659b322f731fa281e6",
      "title": "Kitchen in rent flat- Free 3d scene static"
    },
    "generator": "Sketchfab-12.68.0",
    "version": "2.0"
  },
  "bufferViews": [
    {
      "buffer": 0,
      "byteLength": 160764,
      "name": "floatBufferViews",
      "target": 34963
    },
    {
      "buffer": 0,
      "byteLength": 135016,
      "byteOffset": 160764,
      "byteStride": 8,
      "name": "floatBufferViews",
      "target": 34962
    },
    {
      "buffer": 0,
      "byteLength": 405048,
      "byteOffset": 295780,
      "byteStride": 12,
      "name": "floatBufferViews",
      "target": 34962
    }
  ],
  "buffers": [
    {
      "byteLength": 700828,
      "uri": "scene.bin"
    }
  ],
  "extensionsRequired": [
    "KHR_materials_pbrSpecularGlossiness"
  ],
  "extensionsUsed": [
    "KHR_materials_pbrSpecularGlossiness"
  ],
  "images": [
    {
      "uri": "textures/Room_diffuse.png"
    },
    {
      "uri": "textures/Room_occlusion.png"
    }
  ],
  "materials": [
    {
      "doubleSided": true,
      "extensions": {
        "KHR_materials_pbrSpecularGlossiness": {
          "diffuseFactor": [
            1.0,
            1.0,
            1.0,
            1.0
          ],
          "diffuseTexture": {
            "index": 0
          },
          "glossinessFactor": 0.050351434008840575,
          "specularFactor": [
            0.09899281931549411,
            0.09899281931549411,
            0.09899281931549411
          ]
        }
      },
      "name": "Room",
      "occlusionTexture": {
        "index": 1
      }
    }
  ],
  "meshes": [
    {
      "name": "Object_0",
      "primitives": [
        {
          "attributes": {
            "NORMAL": 1,
            "POSITION": 0,
            "TEXCOORD_0": 2
          },
          "indices": 3,
          "material": 0,
          "mode": 4
        }
      ]
    }
  ],
  "nodes": [
    {
      "children": [
        1
      ],
      "matrix": [
        1.0,
        0.0,
        0.0,
        0.0,
        0.0,
        2.220446049250313e-16,
        -1.0,
        0.0,
        0.0,
        1.0,
        2.220446049250313e-16,
        0.0,
        0.0,
        0.0,
        0.0,
        1.0
      ],
      "name": "Sketchfab_model"
    },
    {
      "children": [
        2
      ],
      "name": "Geode"
    },
    {
      "mesh": 0,
      "name": "Object_2"
    }
  ],
  "samplers": [
    {
      "magFilter": 9729,
      "minFilter": 9987,
      "wrapS": 10497,
      "wrapT": 10497
    }
  ],
  "scene": 0,
  "scenes": [
    {
      "name": "Sketchfab_Scene",
      "nodes": [
        0
      ]
    }
  ],
  "textures": [
    {
      "sampler": 0,
      "source": 0
    },
    {
      "sampler": 0,
      "source": 1
    }
  ]
}
