{
  "accessors": [
    {
      "bufferView": 3,
      "componentType": 5126,
      "count": 108,
      "max": [
        525.333251953125,
        200.06948852539063,
        175.60897827148438
      ],
      "min": [
        286.2394714355469,
        180.06948852539063,
        -163.10977172851563
      ],
      "type": "VEC3"
    },
    {
      "bufferView": 3,
      "byteOffset": 1296,
      "componentType": 5126,
      "count": 108,
      "max": [
        1.0,
        1.0,
        1.0
      ],
      "min": [
        -1.0,
        -1.0,
        -1.0
      ],
      "type": "VEC3"
    },
    {
      "bufferView": 4,
      "componentType": 5126,
      "count": 108,
      "max": [
        1.0,
        0.5144957304000854,
        1.0,
        1.0
      ],
      "min": [
        -1.0,
        -0.5144957900047302,
        -1.0,
        1.0
      ],
      "type": "VEC4"
    },
    {
      "bufferView": 2,
      "componentType": 5126,
      "count": 108,
      "max": [
        0.6698114275932312,
        0.9868725538253784
      ],
      "min": [
        0.0,
        5.551115123125783e-17
      ],
      "type": "VEC2"
    },
    {
      "bufferView": 1,
      "componentType": 5125,
      "count": 174,
      "type": "SCALAR"
    },
    {
      "bufferView": 3,
      "byteOffset": 2592,
      "componentType": 5126,
      "count": 8,
      "max": [
        505.3332214355469,
        186.06947326660156,
        155.60897827148438
      ],
      "min": [
        306.2394714355469,
        184.06947326660156,
        -143.10977172851563
      ],
      "type": "VEC3"
    },
    {
      "bufferView": 3,
      "byteOffset": 2688,
      "componentType": 5126,
      "count": 8,
      "max": [
        0.0,
        1.0,
        2.220446049250313e-16
      ],
      "min": [
        0.0,
        -1.0,
        -2.220446049250313e-16
      ],
      "type": "VEC3"
    },
    {
      "bufferView": 2,
      "byteOffset": 864,
      "componentType": 5126,
      "count": 8,
      "max": [
        1.0,
        1.0
      ],
      "min": [
        0.0,
        0.0
      ],
      "type": "VEC2"
    },
    {
      "bufferView": 1,
      "byteOffset": 696,
      "componentType": 5125,
      "count": 12,
      "type": "SCALAR"
    },
    {
      "bufferView": 3,
      "byteOffset": 2784,
      "componentType": 5126,
      "count": 236,
      "max": [
        533.5050659179688,
        212.3000030517578,
        193.58242797851563
      ],
      "min": [
        269.5050354003906,
        198.0,
        39.58242416381836
      ],
      "type": "VEC3"
    },
    {
      "bufferView": 3,
      "byteOffset": 5616,
      "componentType": 5126,
      "count": 236,
      "max": [
        0.994644820690155,
        1.0,
        0.9946445822715759
      ],
      "min": [
        -0.9946448802947998,
        -0.9946445226669312,
        -0.9946447014808655
      ],
      "type": "VEC3"
    },
    {
      "bufferView": 4,
      "byteOffset": 1728,
      "componentType": 5126,
      "count": 236,
      "max": [
        1.0,
        0.7059590220451355,
        0.9973150491714478,
        1.0
      ],
      "min": [
        -0.9973136782646179,
        -0.7060061693191528,
        -0.9973149299621582,
        1.0
      ],
      "type": "VEC4"
    },
    {
      "bufferView": 2,
      "byteOffset": 928,
      "componentType": 5126,
      "count": 236,
      "max": [
        0.9666556119918823,
        1.0
      ],
      "min": [
        0.0,
        0.03441550210118294
      ],
      "type": "VEC2"
    },
    {
      "bufferView": 1,
      "byteOffset": 744,
      "componentType": 5125,
      "count": 924,
      "type": "SCALAR"
    },
    {
      "bufferView": 3,
      "byteOffset": 8448,
      "componentType": 5126,
      "count": 5790,
      "max": [
        356.4754943847656,
        213.38272094726563,
        76.99891662597656
      ],
      "min": [
        290.35406494140625,
        212.45431518554688,
        39.8718147277832
      ],
      "type": "VEC3"
    },
    {
      "bufferView": 3,
      "byteOffset": 77928,
      "componentType": 5126,
      "count": 5790,
      "max": [
        1.0,
        1.0,
        1.0
      ],
      "min": [
        -1.0,
        -1.0,
        -1.0
      ],
      "type": "VEC3"
    },
    {
      "bufferView": 4,
      "byteOffset": 5504,
      "componentType": 5126,
      "count": 5790,
      "max": [
        1.0,
        0.85077303647995,
        1.0,
        1.0
      ],
      "min": [
        -1.0,
        -0.9445689916610718,
        -1.0,
        -1.0
      ],
      "type": "VEC4"
    },
    {
      "bufferView": 2,
      "byteOffset": 2816,
      "componentType": 5126,
      "count": 5790,
      "max": [
        0.9999163746833801,
        1.0
      ],
      "min": [
        0.0,
        2.5516020503088543e-17
      ],
      "type": "VEC2"
    },
    {
      "bufferView": 1,
      "byteOffset": 4440,
      "componentType": 5125,
      "count": 13962,
      "type": "SCALAR"
    },
    {
      "bufferView": 3,
      "byteOffset": 147408,
      "componentType": 5126,
      "count": 5790,
      "max": [
        512.6560668945313,
        213.38272094726563,
        76.99891662597656
      ],
      "min": [
        446.5345764160156,
        212.45431518554688,
        39.8718147277832
      ],
      "type": "VEC3"
    },
    {
      "bufferView": 3,
      "byteOffset": 216888,
      "componentType": 5126,
      "count": 5790,
      "max": [
        1.0,
        1.0,
        1.0
      ],
      "min": [
        -1.0,
        -1.0,
        -1.0
      ],
      "type": "VEC3"
    },
    {
      "bufferView": 4,
      "byteOffset": 98144,
      "componentType": 5126,
      "count": 5790,
      "max": [
        1.0,
        0.8507781624794006,
        1.0,
        1.0
      ],
      "min": [
        -1.0,
        -0.9441211819648743,
        -1.0,
        -1.0
      ],
      "type": "VEC4"
    },
    {
      "bufferView": 2,
      "byteOffset": 49136,
      "componentType": 5126,
      "count": 5790,
      "max": [
        0.9999163746833801,
        1.0
      ],
      "min": [
        0.0,
        2.5516020503088543e-17
      ],
      "type": "VEC2"
    },
    {
      "bufferView": 1,
      "byteOffset": 60288,
      "componentType": 5125,
      "count": 13962,
      "type": "SCALAR"
    },
    {
      "bufferView": 3,
      "byteOffset": 286368,
      "componentType": 5126,
      "count": 61504,
      "max": [
        429.60833740234375,
        213.7890625,
        195.42205810546875
      ],
      "min": [
        373.3261413574219,
        207.3607940673828,
        155.6474151611328
      ],
      "type": "VEC3"
    },
    {
      "bufferView": 3,
      "byteOffset": 1024416,
      "componentType": 5126,
      "count": 61504,
      "max": [
        1.0,
        1.0,
        1.0
      ],
      "min": [
        -1.0,
        -1.0,
        -1.0
      ],
      "type": "VEC3"
    },
    {
      "bufferView": 4,
      "byteOffset": 190784,
      "componentType": 5126,
      "count": 61504,
      "max": [
        1.0,
        0.9992737770080566,
        1.0,
        1.0
      ],
      "min": [
        -1.0,
        -0.9992724061012268,
        -1.0,
        -1.0
      ],
      "type": "VEC4"
    },
    {
      "bufferView": 2,
      "byteOffset": 95456,
      "componentType": 5126,
      "count": 61504,
      "max": [
        0.9998705983161926,
        1.0
      ],
      "min": [
        5.551115123125783e-17,
        -3.946834721026138e-17
      ],
      "type": "VEC2"
    },
    {
      "bufferView": 1,
      "byteOffset": 116136,
      "componentType": 5125,
      "count": 62238,
      "type": "SCALAR"
    },
    {
      "bufferView": 3,
      "byteOffset": 1762464,
      "componentType": 5126,
      "count": 4486,
      "max": [
        338.4967956542969,
        215.6677703857422,
        41.39292907714844
      ],
      "min": [
        308.3327331542969,
        212.02499389648438,
        37.750606536865234
      ],
      "type": "VEC3"
    },
    {
      "bufferView": 3,
      "byteOffset": 1816296,
      "componentType": 5126,
      "count": 4486,
      "max": [
        1.0,
        1.0,
        1.0
      ],
      "min": [
        -1.0,
        -1.0,
        -1.0
      ],
      "type": "VEC3"
    },
    {
      "bufferView": 4,
      "byteOffset": 1174848,
      "componentType": 5126,
      "count": 4486,
      "max": [
        1.0,
        0.9603160619735718,
        0.7871002554893494,
        1.0
      ],
      "min": [
        -0.8687203526496887,
        -0.7871132493019104,
        -0.9922512769699097,
        1.0
      ],
      "type": "VEC4"
    },
    {
      "bufferView": 2,
      "byteOffset": 587488,
      "componentType": 5126,
      "count": 4486,
      "max": [
        1.0,
        0.9295449256896973
      ],
      "min": [
        0.0,
        5.662012911745052e-17
      ],
      "type": "VEC2"
    },
    {
      "bufferView": 1,
      "byteOffset": 365088,
      "componentType": 5125,
      "count": 23328,
      "type": "SCALAR"
    },
    {
      "bufferView": 3,
      "byteOffset": 1870128,
      "componentType": 5126,
      "count": 13638,
      "max": [
        356.4754943847656,
        213.3824462890625,
        39.8718147277832
      ],
      "min": [
        290.35406494140625,
        212.45401000976563,
        2.7447128295898438
      ],
      "type": "VEC3"
    },
    {
      "bufferView": 3,
      "byteOffset": 2033784,
      "componentType": 5126,
      "count": 13638,
      "max": [
        1.0,
        1.0,
        1.0
      ],
      "min": [
        -1.0,
        -1.0,
        -1.0
      ],
      "type": "VEC3"
    },
    {
      "bufferView": 4,
      "byteOffset": 1246624,
      "componentType": 5126,
      "count": 13638,
      "max": [
        1.0,
        0.8454023003578186,
        1.0,
        1.0
      ],
      "min": [
        -1.0,
        -0.8815991282463074,
        -1.0,
        -1.0
      ],
      "type": "VEC4"
    },
    {
      "bufferView": 2,
      "byteOffset": 623376,
      "componentType": 5126,
      "count": 13638,
      "max": [
        0.9999163746833801,
        1.0
      ],
      "min": [
        0.0,
        2.5516020503088543e-17
      ],
      "type": "VEC2"
    },
    {
      "bufferView": 1,
      "byteOffset": 458400,
      "componentType": 5125,
      "count": 13962,
      "type": "SCALAR"
    },
    {
      "bufferView": 3,
      "byteOffset": 2197440,
      "componentType": 5126,
      "count": 15421,
      "max": [
        356.46649169921875,
        213.3827362060547,
        -143.52464294433594
      ],
      "min": [
        290.3450622558594,
        198.30006408691406,
        -182.37037658691406
      ],
      "type": "VEC3"
    },
    {
      "bufferView": 3,
      "byteOffset": 2382492,
      "componentType": 5126,
      "count": 15421,
      "max": [
        1.0,
        1.0,
        1.0
      ],
      "min": [
        -1.0,
        -1.0,
        -1.0
      ],
      "type": "VEC3"
    },
    {
      "bufferView": 4,
      "byteOffset": 1464832,
      "componentType": 5126,
      "count": 15421,
      "max": [
        1.0,
        0.8219422698020935,
        1.0,
        1.0
      ],
      "min": [
        -1.0,
        -0.881600558757782,
        -1.0,
        -1.0
      ],
      "type": "VEC4"
    },
    {
      "bufferView": 2,
      "byteOffset": 732480,
      "componentType": 5126,
      "count": 15421,
      "max": [
        0.9998166561126709,
        1.0
      ],
      "min": [
        0.0,
        -4.797594613248357e-18
      ],
      "type": "VEC2"
    },
    {
      "bufferView": 1,
      "byteOffset": 514248,
      "componentType": 5125,
      "count": 15750,
      "type": "SCALAR"
    },
    {
      "bufferView": 3,
      "byteOffset": 2567544,
      "componentType": 5126,
      "count": 15421,
      "max": [
        512.656005859375,
        213.3827362060547,
        -143.52464294433594
      ],
      "min": [
        446.5345764160156,
        198.30006408691406,
        -182.37037658691406
      ],
      "type": "VEC3"
    },
    {
      "bufferView": 3,
      "byteOffset": 2752596,
      "componentType": 5126,
      "count": 15421,
      "max": [
        1.0,
        1.0,
        1.0
      ],
      "min": [
        -1.0,
        -1.0,
        -1.0
      ],
      "type": "VEC3"
    },
    {
      "bufferView": 4,
      "byteOffset": 1711568,
      "componentType": 5126,
      "count": 15421,
      "max": [
        1.0,
        0.8219422698020935,
        1.0,
        1.0
      ],
      "min": [
        -1.0,
        -0.881600558757782,
        -1.0,
        -1.0
      ],
      "type": "VEC4"
    },
    {
      "bufferView": 2,
      "byteOffset": 855848,
      "componentType": 5126,
      "count": 15421,
      "max": [
        0.9998166561126709,
        1.0
      ],
      "min": [
        0.0,
        -4.797594613248357e-18
      ],
      "type": "VEC2"
    },
    {
      "bufferView": 1,
      "byteOffset": 577248,
      "componentType": 5125,
      "count": 15750,
      "type": "SCALAR"
    },
    {
      "bufferView": 3,
      "byteOffset": 2937648,
      "componentType": 5126,
      "count": 236,
      "max": [
        533.5050659179688,
        212.29998779296875,
        39.58244323730469
      ],
      "min": [
        269.5050354003906,
        197.99998474121094,
        -180.4175567626953
      ],
      "type": "VEC3"
    },
    {
      "bufferView": 3,
      "byteOffset": 2940480,
      "componentType": 5126,
      "count": 236,
      "max": [
        0.994644820690155,
        1.0,
        0.9946444630622864
      ],
      "min": [
        -0.9946448802947998,
        -0.9946445226669312,
        -0.9946445822715759
      ],
      "type": "VEC3"
    },
    {
      "bufferView": 4,
      "byteOffset": 1958304,
      "componentType": 5126,
      "count": 236,
      "max": [
        1.0,
        0.7059898376464844,
        0.9973147511482239,
        1.0
      ],
      "min": [
        -0.9973169565200806,
        -0.7060061097145081,
        -0.9973148703575134,
        1.0
      ],
      "type": "VEC4"
    },
    {
      "bufferView": 2,
      "byteOffset": 979216,
      "componentType": 5126,
      "count": 236,
      "max": [
        0.9666072130203247,
        0.9691065549850464
      ],
      "min": [
        0.0,
        5.551115123125783e-17
      ],
      "type": "VEC2"
    },
    {
      "bufferView": 1,
      "byteOffset": 640248,
      "componentType": 5125,
      "count": 924,
      "type": "SCALAR"
    },
    {
      "bufferView": 3,
      "byteOffset": 2943312,
      "componentType": 5126,
      "count": 4486,
      "max": [
        494.6773681640625,
        215.6677703857422,
        41.39292907714844
      ],
      "min": [
        464.5132751464844,
        212.02499389648438,
        37.750606536865234
      ],
      "type": "VEC3"
    },
    {
      "bufferView": 3,
      "byteOffset": 2997144,
      "componentType": 5126,
      "count": 4486,
      "max": [
        1.0,
        1.0,
        1.0
      ],
      "min": [
        -1.0,
        -1.0,
        -1.0
      ],
      "type": "VEC3"
    },
    {
      "bufferView": 4,
      "byteOffset": 1962080,
      "componentType": 5126,
      "count": 4486,
      "max": [
        0.86868816614151,
        0.9603145718574524,
        0.7871484756469727,
        -1.0
      ],
      "min": [
        -1.0,
        -0.7871361970901489,
        -0.9922513961791992,
        -1.0
      ],
      "type": "VEC4"
    },
    {
      "bufferView": 2,
      "byteOffset": 981104,
      "componentType": 5126,
      "count": 4486,
      "max": [
        1.0,
        0.9295449256896973
      ],
      "min": [
        0.0,
        5.662012911745052e-17
      ],
      "type": "VEC2"
    },
    {
      "bufferView": 1,
      "byteOffset": 643944,
      "componentType": 5125,
      "count": 23328,
      "type": "SCALAR"
    },
    {
      "bufferView": 3,
      "byteOffset": 3050976,
      "componentType": 5126,
      "count": 13649,
      "max": [
        512.6560668945313,
        213.3824462890625,
        39.8718147277832
      ],
      "min": [
        446.5345764160156,
        212.45401000976563,
        2.7447128295898438
      ],
      "type": "VEC3"
    },
    {
      "bufferView": 3,
      "byteOffset": 3214764,
      "componentType": 5126,
      "count": 13649,
      "max": [
        1.0,
        1.0,
        1.0
      ],
      "min": [
        -1.0,
        -1.0,
        -1.0
      ],
      "type": "VEC3"
    },
    {
      "bufferView": 4,
      "byteOffset": 2033856,
      "componentType": 5126,
      "count": 13649,
      "max": [
        1.0,
        0.8454065918922424,
        1.0,
        1.0
      ],
      "min": [
        -1.0,
        -0.88160640001297,
        -1.0,
        -1.0
      ],
      "type": "VEC4"
    },
    {
      "bufferView": 2,
      "byteOffset": 1016992,
      "componentType": 5126,
      "count": 13649,
      "max": [
        0.9999163746833801,
        1.0
      ],
      "min": [
        0.0,
        2.5516020503088543e-17
      ],
      "type": "VEC2"
    },
    {
      "bufferView": 1,
      "byteOffset": 737256,
      "componentType": 5125,
      "count": 13962,
      "type": "SCALAR"
    },
    {
      "bufferView": 3,
      "byteOffset": 3378552,
      "componentType": 5126,
      "count": 36591,
      "max": [
        480.01202392578125,
        120.14973449707031,
        222.74325561523438
      ],
      "min": [
        407.75201416015625,
        74.42633819580078,
        214.0142059326172
      ],
      "type": "VEC3"
    },
    {
      "bufferView": 3,
      "byteOffset": 3817644,
      "componentType": 5126,
      "count": 36591,
      "max": [
        1.0,
        0.9996412396430969,
        1.0
      ],
      "min": [
        -1.0,
        -0.999607264995575,
        -0.9999862313270569
      ],
      "type": "VEC3"
    },
    {
      "bufferView": 4,
      "byteOffset": 2252240,
      "componentType": 5126,
      "count": 36591,
      "max": [
        1.0,
        0.7071863412857056,
        1.0,
        1.0
      ],
      "min": [
        -1.0,
        -0.7071965336799622,
        -1.0,
        1.0
      ],
      "type": "VEC4"
    },
    {
      "bufferView": 2,
      "byteOffset": 1126184,
      "componentType": 5126,
      "count": 36591,
      "max": [
        1.7666207551956177,
        1.8176403045654297
      ],
      "min": [
        -0.7666207551956177,
        0.23013967275619507
      ],
      "type": "VEC2"
    },
    {
      "bufferView": 1,
      "byteOffset": 793104,
      "componentType": 5125,
      "count": 37524,
      "type": "SCALAR"
    },
    {
      "bufferView": 3,
      "byteOffset": 4256736,
      "componentType": 5126,
      "count": 604,
      "max": [
        516.9362182617188,
        148.43128967285156,
        193.54806518554688
      ],
      "min": [
        286.6581115722656,
        26.281137466430664,
        -164.74948120117188
      ],
      "type": "VEC3"
    },
    {
      "bufferView": 3,
      "byteOffset": 4263984,
      "componentType": 5126,
      "count": 604,
      "max": [
        0.9974841475486755,
        0.9995433688163757,
        0.9948861002922058
      ],
      "min": [
        -0.9974841475486755,
        -0.9974842667579651,
        -0.9948840141296387
      ],
      "type": "VEC3"
    },
    {
      "bufferView": 4,
      "byteOffset": 2837696,
      "componentType": 5126,
      "count": 604,
      "max": [
        0.999470055103302,
        0.7059870362281799,
        0.7059881687164307,
        1.0
      ],
      "min": [
        -0.7059988379478455,
        -0.716823160648346,
        -1.0,
        1.0
      ],
      "type": "VEC4"
    },
    {
      "bufferView": 2,
      "byteOffset": 1418912,
      "componentType": 5126,
      "count": 604,
      "max": [
        0.9902064204216003,
        1.0
      ],
      "min": [
        0.0,
        1.0591935247178212e-16
      ],
      "type": "VEC2"
    },
    {
      "bufferView": 1,
      "byteOffset": 943200,
      "componentType": 5125,
      "count": 2562,
      "type": "SCALAR"
    },
    {
      "bufferView": 3,
      "byteOffset": 4271232,
      "componentType": 5126,
      "count": 1101,
      "max": [
        170.0,
        77.5,
        15.0
      ],
      "min": [
        -170.00003051757813,
        -77.50000762939453,
        -225.00003051757813
      ],
      "type": "VEC3"
    },
    {
      "bufferView": 3,
      "byteOffset": 4284444,
      "componentType": 5126,
      "count": 1101,
      "max": [
        1.0,
        1.0,
        1.0
      ],
      "min": [
        -1.0,
        -1.0,
        -1.0
      ],
      "type": "VEC3"
    },
    {
      "bufferView": 4,
      "byteOffset": 2847360,
      "componentType": 5126,
      "count": 1101,
      "max": [
        1.0,
        0.519269585609436,
        0.5190998911857605,
        1.0
      ],
      "min": [
        -1.0,
        -0.5192523002624512,
        -1.0,
        1.0
      ],
      "type": "VEC4"
    },
    {
      "bufferView": 2,
      "byteOffset": 1423744,
      "componentType": 5126,
      "count": 1101,
      "max": [
        0.9982374906539917,
        0.9891538023948669
      ],
      "min": [
        0.0,
        7.016901690803934e-07
      ],
      "type": "VEC2"
    },
    {
      "bufferView": 1,
      "byteOffset": 953448,
      "componentType": 5125,
      "count": 1332,
      "type": "SCALAR"
    },
    {
      "bufferView": 3,
      "byteOffset": 4297656,
      "componentType": 5126,
      "count": 4486,
      "max": [
        13.710936546325684,
        1.6556016206741333,
        1.6559200286865234
      ],
      "min": [
        -13.710948944091797,
        -1.6555994749069214,
        -1.655693769454956
      ],
      "type": "VEC3"
    },
    {
      "bufferView": 3,
      "byteOffset": 4351488,
      "componentType": 5126,
      "count": 4486,
      "max": [
        1.0,
        1.0,
        1.0
      ],
      "min": [
        -1.0,
        -1.0,
        -1.0
      ],
      "type": "VEC3"
    },
    {
      "bufferView": 4,
      "byteOffset": 2864976,
      "componentType": 5126,
      "count": 4486,
      "max": [
        1.0,
        0.9922512769699097,
        0.9603160619735718,
        1.0
      ],
      "min": [
        -0.8687204122543335,
        -0.7871003150939941,
        -0.7871132493019104,
        1.0
      ],
      "type": "VEC4"
    },
    {
      "bufferView": 2,
      "byteOffset": 1432552,
      "componentType": 5126,
      "count": 4486,
      "max": [
        1.0,
        0.9295449256896973
      ],
      "min": [
        0.0,
        5.662012911745052e-17
      ],
      "type": "VEC2"
    },
    {
      "bufferView": 1,
      "byteOffset": 958776,
      "componentType": 5125,
      "count": 23328,
      "type": "SCALAR"
    },
    {
      "bufferView": 3,
      "byteOffset": 4405320,
      "componentType": 5126,
      "count": 5791,
      "max": [
        30.055204391479492,
        33.75190353393555,
        0.42186737060546875
      ],
      "min": [
        -30.055198669433594,
        -4.76837158203125e-06,
        -0.4221649169921875
      ],
      "type": "VEC3"
    },
    {
      "bufferView": 3,
      "byteOffset": 4474812,
      "componentType": 5126,
      "count": 5791,
      "max": [
        1.0,
        1.0,
        1.0
      ],
      "min": [
        -1.0,
        -1.0,
        -1.0
      ],
      "type": "VEC3"
    },
    {
      "bufferView": 4,
      "byteOffset": 2936752,
      "componentType": 5126,
      "count": 5791,
      "max": [
        1.0,
        1.0,
        0.8507729768753052,
        1.0
      ],
      "min": [
        -1.0,
        -1.0,
        -0.9441145658493042,
        -1.0
      ],
      "type": "VEC4"
    },
    {
      "bufferView": 2,
      "byteOffset": 1468440,
      "componentType": 5126,
      "count": 5791,
      "max": [
        0.9999163746833801,
        1.0
      ],
      "min": [
        0.0,
        2.5516020503088543e-17
      ],
      "type": "VEC2"
    },
    {
      "bufferView": 1,
      "byteOffset": 1052088,
      "componentType": 5125,
      "count": 13962,
      "type": "SCALAR"
    },
    {
      "bufferView": 3,
      "byteOffset": 4544304,
      "componentType": 5126,
      "count": 20,
      "max": [
        105.0000228881836,
        -55.00000762939453,
        78.96492004394531
      ],
      "min": [
        -105.00001525878906,
        -60.000030517578125,
        -218.11293029785156
      ],
      "type": "VEC3"
    },
    {
      "bufferView": 3,
      "byteOffset": 4544544,
      "componentType": 5126,
      "count": 20,
      "max": [
        1.0,
        0.0,
        1.0
      ],
      "min": [
        -1.0,
        -1.0,
        -1.0
      ],
      "type": "VEC3"
    },
    {
      "bufferView": 2,
      "byteOffset": 1514768,
      "componentType": 5126,
      "count": 20,
      "max": [
        0.8451728224754333,
        0.9556087255477905
      ],
      "min": [
        0.021682364866137505,
        0.0
      ],
      "type": "VEC2"
    },
    {
      "bufferView": 1,
      "byteOffset": 1107936,
      "componentType": 5125,
      "count": 30,
      "type": "SCALAR"
    },
    {
      "bufferView": 3,
      "byteOffset": 4544784,
      "componentType": 5126,
      "count": 4486,
      "max": [
        155.6931915283203,
        1.6556016206741333,
        1.6559200286865234
      ],
      "min": [
        128.27130126953125,
        -1.6555994749069214,
        -1.655693769454956
      ],
      "type": "VEC3"
    },
    {
      "bufferView": 3,
      "byteOffset": 4598616,
      "componentType": 5126,
      "count": 4486,
      "max": [
        1.0,
        1.0,
        1.0
      ],
      "min": [
        -1.0,
        -1.0,
        -1.0
      ],
      "type": "VEC3"
    },
    {
      "bufferView": 4,
      "byteOffset": 3029408,
      "componentType": 5126,
      "count": 4486,
      "max": [
        0.8686882257461548,
        0.9922515153884888,
        0.9603146314620972,
        -1.0
      ],
      "min": [
        -1.0,
        -0.7871484756469727,
        -0.7871361970901489,
        -1.0
      ],
      "type": "VEC4"
    },
    {
      "bufferView": 2,
      "byteOffset": 1514928,
      "componentType": 5126,
      "count": 4486,
      "max": [
        1.0,
        0.9295449256896973
      ],
      "min": [
        0.0,
        5.662012911745052e-17
      ],
      "type": "VEC2"
    },
    {
      "bufferView": 1,
      "byteOffset": 1108056,
      "componentType": 5125,
      "count": 23328,
      "type": "SCALAR"
    },
    {
      "bufferView": 3,
      "byteOffset": 4652448,
      "componentType": 5126,
      "count": 5791,
      "max": [
        172.03744506835938,
        33.75190353393555,
        0.42186737060546875
      ],
      "min": [
        111.92703247070313,
        -4.76837158203125e-06,
        -0.4221649169921875
      ],
      "type": "VEC3"
    },
    {
      "bufferView": 3,
      "byteOffset": 4721940,
      "componentType": 5126,
      "count": 5791,
      "max": [
        1.0,
        1.0,
        1.0
      ],
      "min": [
        -1.0,
        -1.0,
        -1.0
      ],
      "type": "VEC3"
    },
    {
      "bufferView": 4,
      "byteOffset": 3101184,
      "componentType": 5126,
      "count": 5791,
      "max": [
        1.0,
        1.0,
        0.8507752418518066,
        1.0
      ],
      "min": [
        -1.0,
        -1.0,
        -0.9445766806602478,
        -1.0
      ],
      "type": "VEC4"
    },
    {
      "bufferView": 2,
      "byteOffset": 1550816,
      "componentType": 5126,
      "count": 5791,
      "max": [
        0.9999163746833801,
        1.0
      ],
      "min": [
        0.0,
        2.5516020503088543e-17
      ],
      "type": "VEC2"
    },
    {
      "bufferView": 1,
      "byteOffset": 1201368,
      "componentType": 5125,
      "count": 13962,
      "type": "SCALAR"
    },
    {
      "bufferView": 3,
      "byteOffset": 4791432,
      "componentType": 5126,
      "count": 12177,
      "max": [
        104.17542266845703,
        179.6431884765625,
        25.00006103515625
      ],
      "min": [
        -145.8245849609375,
        -160.35684204101563,
        -6.443181337090209e-05
      ],
      "type": "VEC3"
    },
    {
      "bufferView": 3,
      "byteOffset": 4937556,
      "componentType": 5126,
      "count": 12177,
      "max": [
        1.0,
        1.0,
        1.0
      ],
      "min": [
        -1.0,
        -1.0,
        -1.0
      ],
      "type": "VEC3"
    },
    {
      "bufferView": 4,
      "byteOffset": 3193840,
      "componentType": 5126,
      "count": 12177,
      "max": [
        1.0,
        1.0,
        1.0,
        1.0
      ],
      "min": [
        -1.0,
        -1.0,
        -1.0,
        1.0
      ],
      "type": "VEC4"
    },
    {
      "bufferView": 2,
      "byteOffset": 1597144,
      "componentType": 5126,
      "count": 12177,
      "max": [
        1.0,
        0.98832106590271
      ],
      "min": [
        0.0,
        3.5428000051858366e-17
      ],
      "type": "VEC2"
    },
    {
      "bufferView": 1,
      "byteOffset": 1257216,
      "componentType": 5125,
      "count": 64512,
      "type": "SCALAR"
    },
    {
      "bufferView": 3,
      "byteOffset": 5083680,
      "componentType": 5126,
      "count": 60553,
      "max": [
        -14.72979736328125,
        13.938819885253906,
        178.7257537841797
      ],
      "min": [
        -65.89543914794922,
        -19.429683685302734,
        174.53875732421875
      ],
      "type": "VEC3"
    },
    {
      "bufferView": 3,
      "byteOffset": 5810316,
      "componentType": 5126,
      "count": 60553,
      "max": [
        1.0,
        1.0,
        1.0
      ],
      "min": [
        -1.0,
        -1.0,
        -1.0
      ],
      "type": "VEC3"
    },
    {
      "bufferView": 4,
      "byteOffset": 3388672,
      "componentType": 5126,
      "count": 60553,
      "max": [
        1.0,
        1.0,
        0.9993206262588501,
        1.0
      ],
      "min": [
        -1.0,
        -1.0,
        -0.9993219971656799,
        -1.0
      ],
      "type": "VEC4"
    },
    {
      "bufferView": 2,
      "byteOffset": 1694560,
      "componentType": 5126,
      "count": 60553,
      "max": [
        0.9998228549957275,
        1.0
      ],
      "min": [
        0.0,
        -3.913631029493769e-17
      ],
      "type": "VEC2"
    },
    {
      "bufferView": 1,
      "byteOffset": 1515264,
      "componentType": 5125,
      "count": 63540,
      "type": "SCALAR"
    },
    {
      "bufferView": 5,
      "componentType": 5126,
      "count": 5,
      "max": [
        1.0,
        0.0,
        0.0,
        0.0,
        0.0,
        1.0,
        0.8999999761581421,
        0.0,
        0.8999999761581421,
        3.934024661589319e-08,
        1.0,
        0.0,
        149.01589965820313,
        35.974334716796875,
        365.0046081542969,
        1.0
      ],
      "min": [
        1.4662860792213905e-07,
        -1.4662860792213905e-07,
        -0.8999999761581421,
        0.0,
        0.0,
        5.5109105057610103e-17,
        -1.4662860792213905e-07,
        0.0,
        0.0,
        -0.8999999761581421,
        5.5109105057610103e-17,
        0.0,
        -365.20770263671875,
        -180.06253051757813,
        -193.77310180664063,
        1.0
      ],
      "type": "MAT4"
    },
    {
      "bufferView": 0,
      "componentType": 5123,
      "count": 108,
      "type": "VEC4"
    },
    {
      "bufferView": 4,
      "byteOffset": 4357520,
      "componentType": 5126,
      "count": 108,
      "max": [
        1.0,
        0.0,
        0.0,
        0.0
      ],
      "min": [
        1.0,
        0.0,
        0.0,
        0.0
      ],
      "type": "VEC4"
    },
    {
      "bufferView": 0,
      "byteOffset": 864,
      "componentType": 5123,
      "count": 8,
      "type": "VEC4"
    },
    {
      "bufferView": 4,
      "byteOffset": 4359248,
      "componentType": 5126,
      "count": 8,
      "max": [
        1.0,
        0.0,
        0.0,
        0.0
      ],
      "min": [
        1.0,
        0.0,
        0.0,
        0.0
      ],
      "type": "VEC4"
    },
    {
      "bufferView": 0,
      "byteOffset": 928,
      "componentType": 5123,
      "count": 236,
      "type": "VEC4"
    },
    {
      "bufferView": 4,
      "byteOffset": 4359376,
      "componentType": 5126,
      "count": 236,
      "max": [
        1.0,
        0.0,
        0.0,
        0.0
      ],
      "min": [
        1.0,
        0.0,
        0.0,
        0.0
      ],
      "type": "VEC4"
    },
    {
      "bufferView": 0,
      "byteOffset": 2816,
      "componentType": 5123,
      "count": 5790,
      "type": "VEC4"
    },
    {
      "bufferView": 4,
      "byteOffset": 4363152,
      "componentType": 5126,
      "count": 5790,
      "max": [
        1.0,
        0.0,
        0.0,
        0.0
      ],
      "min": [
        1.0,
        0.0,
        0.0,
        0.0
      ],
      "type": "VEC4"
    },
    {
      "bufferView": 0,
      "byteOffset": 49136,
      "componentType": 5123,
      "count": 5790,
      "type": "VEC4"
    },
    {
      "bufferView": 4,
      "byteOffset": 4455792,
      "componentType": 5126,
      "count": 5790,
      "max": [
        1.0,
        0.0,
        0.0,
        0.0
      ],
      "min": [
        1.0,
        0.0,
        0.0,
        0.0
      ],
      "type": "VEC4"
    },
    {
      "bufferView": 0,
      "byteOffset": 95456,
      "componentType": 5123,
      "count": 61504,
      "type": "VEC4"
    },
    {
      "bufferView": 4,
      "byteOffset": 4548432,
      "componentType": 5126,
      "count": 61504,
      "max": [
        1.0,
        0.0,
        0.0,
        0.0
      ],
      "min": [
        1.0,
        0.0,
        0.0,
        0.0
      ],
      "type": "VEC4"
    },
    {
      "bufferView": 0,
      "byteOffset": 587488,
      "componentType": 5123,
      "count": 4486,
      "type": "VEC4"
    },
    {
      "bufferView": 4,
      "byteOffset": 5532496,
      "componentType": 5126,
      "count": 4486,
      "max": [
        1.0,
        0.0,
        0.0,
        0.0
      ],
      "min": [
        1.0,
        0.0,
        0.0,
        0.0
      ],
      "type": "VEC4"
    },
    {
      "bufferView": 0,
      "byteOffset": 623376,
      "componentType": 5123,
      "count": 13638,
      "type": "VEC4"
    },
    {
      "bufferView": 4,
      "byteOffset": 5604272,
      "componentType": 5126,
      "count": 13638,
      "max": [
        1.0,
        0.0,
        0.0,
        0.0
      ],
      "min": [
        1.0,
        0.0,
        0.0,
        0.0
      ],
      "type": "VEC4"
    },
    {
      "bufferView": 0,
      "byteOffset": 732480,
      "componentType": 5123,
      "count": 15421,
      "type": "VEC4"
    },
    {
      "bufferView": 4,
      "byteOffset": 5822480,
      "componentType": 5126,
      "count": 15421,
      "max": [
        1.0,
        0.0,
        0.0,
        0.0
      ],
      "min": [
        1.0,
        0.0,
        0.0,
        0.0
      ],
      "type": "VEC4"
    },
    {
      "bufferView": 0,
      "byteOffset": 855848,
      "componentType": 5123,
      "count": 15421,
      "type": "VEC4"
    },
    {
      "bufferView": 4,
      "byteOffset": 6069216,
      "componentType": 5126,
      "count": 15421,
      "max": [
        1.0,
        0.0,
        0.0,
        0.0
      ],
      "min": [
        1.0,
        0.0,
        0.0,
        0.0
      ],
      "type": "VEC4"
    },
    {
      "bufferView": 0,
      "byteOffset": 979216,
      "componentType": 5123,
      "count": 236,
      "type": "VEC4"
    },
    {
      "bufferView": 4,
      "byteOffset": 6315952,
      "componentType": 5126,
      "count": 236,
      "max": [
        1.0,
        0.0,
        0.0,
        0.0
      ],
      "min": [
        1.0,
        0.0,
        0.0,
        0.0
      ],
      "type": "VEC4"
    },
    {
      "bufferView": 0,
      "byteOffset": 981104,
      "componentType": 5123,
      "count": 4486,
      "type": "VEC4"
    },
    {
      "bufferView": 4,
      "byteOffset": 6319728,
      "componentType": 5126,
      "count": 4486,
      "max": [
        1.0,
        0.0,
        0.0,
        0.0
      ],
      "min": [
        1.0,
        0.0,
        0.0,
        0.0
      ],
      "type": "VEC4"
    },
    {
      "bufferView": 0,
      "byteOffset": 1016992,
      "componentType": 5123,
      "count": 13649,
      "type": "VEC4"
    },
    {
      "bufferView": 4,
      "byteOffset": 6391504,
      "componentType": 5126,
      "count": 13649,
      "max": [
        1.0,
        0.0,
        0.0,
        0.0
      ],
      "min": [
        1.0,
        0.0,
        0.0,
        0.0
      ],
      "type": "VEC4"
    },
    {
      "bufferView": 0,
      "byteOffset": 1126184,
      "componentType": 5123,
      "count": 36591,
      "type": "VEC4"
    },
    {
      "bufferView": 4,
      "byteOffset": 6609888,
      "componentType": 5126,
      "count": 36591,
      "max": [
        1.0,
        0.0,
        0.0,
        0.0
      ],
      "min": [
        1.0,
        0.0,
        0.0,
        0.0
      ],
      "type": "VEC4"
    },
    {
      "bufferView": 0,
      "byteOffset": 1418912,
      "componentType": 5123,
      "count": 604,
      "type": "VEC4"
    },
    {
      "bufferView": 4,
      "byteOffset": 7195344,
      "componentType": 5126,
      "count": 604,
      "max": [
        1.0,
        0.0,
        0.0,
        0.0
      ],
      "min": [
        1.0,
        0.0,
        0.0,
        0.0
      ],
      "type": "VEC4"
    },
    {
      "bufferView": 6,
      "componentType": 5126,
      "count": 5,
      "max": [
        5.0
      ],
      "min": [
        0.0
      ],
      "type": "SCALAR"
    },
    {
      "bufferView": 8,
      "componentType": 5126,
      "count": 5,
      "max": [
        0.7071069478988647,
        0.0,
        0.0,
        0.7071065902709961
      ],
      "min": [
        0.7071069478988647,
        0.0,
        0.0,
        0.7071065902709961
      ],
      "type": "VEC4"
    },
    {
      "bufferView": 6,
      "byteOffset": 20,
      "componentType": 5126,
      "count": 164,
      "max": [
        12.0
      ],
      "min": [
        0.0
      ],
      "type": "SCALAR"
    },
    {
      "bufferView": 8,
      "byteOffset": 80,
      "componentType": 5126,
      "count": 164,
      "max": [
        2.9802322387695313e-08,
        0.0,
        0.0,
        1.0
      ],
      "min": [
        -0.7071067690849304,
        0.0,
        0.0,
        0.7071067690849304
      ],
      "type": "VEC4"
    },
    {
      "bufferView": 6,
      "byteOffset": 676,
      "componentType": 5126,
      "count": 182,
      "max": [
        12.0
      ],
      "min": [
        0.0
      ],
      "type": "SCALAR"
    },
    {
      "bufferView": 8,
      "byteOffset": 2704,
      "componentType": 5126,
      "count": 182,
      "max": [
        0.0,
        0.0,
        0.0,
        1.0
      ],
      "min": [
        -0.5174963474273682,
        0.0,
        0.0,
        0.8556854128837585
      ],
      "type": "VEC4"
    },
    {
      "bufferView": 6,
      "byteOffset": 1404,
      "componentType": 5126,
      "count": 92,
      "max": [
        8.0
      ],
      "min": [
        4.0
      ],
      "type": "SCALAR"
    },
    {
      "bufferView": 7,
      "componentType": 5126,
      "count": 92,
      "max": [
        0.0,
        149.279296875,
        -24.080352783203125
      ],
      "min": [
        0.0,
        -5.431396484375,
        -24.080360412597656
      ],
      "type": "VEC3"
    }
  ],
  "animations": [
    {
      "channels": [
        {
          "sampler": 0,
          "target": {
            "node": 39,
            "path": "rotation"
          }
        },
        {
          "sampler": 1,
          "target": {
            "node": 38,
            "path": "rotation"
          }
        },
        {
          "sampler": 2,
          "target": {
            "node": 37,
            "path": "rotation"
          }
        },
        {
          "sampler": 3,
          "target": {
            "node": 40,
            "path": "translation"
          }
        }
      ],
      "name": "Take 001",
      "samplers": [
        {
          "input": 144,
          "interpolation": "LINEAR",
          "output": 145
        },
        {
          "input": 146,
          "interpolation": "LINEAR",
          "output": 147
        },
        {
          "input": 148,
          "interpolation": "LINEAR",
          "output": 149
        },
        {
          "input": 150,
          "interpolation": "LINEAR",
          "output": 151
        }
      ]
    }
  ],
  "asset": {
    "extras": {
      "author": "Korea Craft & Design Foundation (https://sketchfab.com/wipco6080)",
      "license": "CC-BY-4.0 (http://creativecommons.org/licenses/by/4.0/)",
      "source": "https://sketchfab.com/3d-models/kcdf-makeup-table-01-30579f08fcdd4fbd95a532b56fb81c12",
      "title": "KCDF-좌경(Makeup Table_01)"
    },
    "generator": "Sketchfab-14.64.0",
    "version": "2.0"
  },
  "bufferViews": [
    {
      "buffer": 0,
      "byteLength": 1423744,
      "byteStride": 8,
      "name": "shortBufferViews",
      "target": 34962
    },
    {
      "buffer": 0,
      "byteLength": 1769424,
      "byteOffset": 1423744,
      "name": "floatBufferViews",
      "target": 34963
    },
    {
      "buffer": 0,
      "byteLength": 2178984,
      "byteOffset": 3193168,
      "byteStride": 8,
      "name": "floatBufferViews",
      "target": 34962
    },
    {
      "buffer": 0,
      "byteLength": 6536952,
      "byteOffset": 5372152,
      "byteStride": 12,
      "name": "floatBufferViews",
      "target": 34962
    },
    {
      "buffer": 0,
      "byteLength": 7205008,
      "byteOffset": 11909104,
      "byteStride": 16,
      "name": "floatBufferViews",
      "target": 34962
    },
    {
      "buffer": 0,
      "byteLength": 320,
      "byteOffset": 19114112,
      "name": "floatBufferViews"
    },
    {
      "buffer": 0,
      "byteLength": 1772,
      "byteOffset": 19114432,
      "name": "floatBufferViews"
    },
    {
      "buffer": 0,
      "byteLength": 1104,
      "byteOffset": 19116204,
      "byteStride": 12,
      "name": "floatBufferViews"
    },
    {
      "buffer": 0,
      "byteLength": 5616,
      "byteOffset": 19117308,
      "byteStride": 16,
      "name": "floatBufferViews"
    }
  ],
  "buffers": [
    {
      "byteLength": 19122924,
      "uri": "scene.bin"
    }
  ],
  "extensionsUsed": [
    "KHR_materials_transmission",
    "KHR_materials_specular"
  ],
  "images": [
    {
      "uri": "textures/Wood_Head_baseColor.png"
    },
    {
      "uri": "textures/Wood_Head_metallicRoughness.png"
    },
    {
      "uri": "textures/Wood_Head_normal.png"
    },
    {
      "uri": "textures/silver_sus_baseColor.png"
    },
    {
      "uri": "textures/silver_sus_metallicRoughness.png"
    },
    {
      "uri": "textures/silver_sus_normal.png"
    },
    {
      "uri": "textures/Wood_Body_baseColor.png"
    },
    {
      "uri": "textures/Wood_Body_metallicRoughness.png"
    },
    {
      "uri": "textures/Wood_Body_normal.png"
    },
    {
      "uri": "textures/Wood_Foot_baseColor.png"
    },
    {
      "uri": "textures/Wood_Foot_metallicRoughness.png"
    },
    {
      "uri": "textures/Wood_Foot_normal.png"
    }
  ],
  "materials": [
    {
      "doubleSided": true,
      "name": "Wood_Head",
      "normalTexture": {
        "index": 2,
        "scale": 0.5
      },
      "pbrMetallicRoughness": {
        "baseColorTexture": {
          "index": 0
        },
        "metallicFactor": 0.0,
        "metallicRoughnessTexture": {
          "index": 1
        },
        "roughnessFactor": 0.7
      }
    },
    {
      "doubleSided": true,
      "extensions": {
        "KHR_materials_specular": {
          "specularColorFactor": [
            1.0,
            1.0,
            1.0
          ],
          "specularFactor": 0.0
        },
        "KHR_materials_transmission": {
          "transmissionFactor": 0.0
        }
      },
      "name": "Glass",
      "pbrMetallicRoughness": {
        "roughnessFactor": 0.0
      }
    },
    {
      "doubleSided": true,
      "name": "silver_sus",
      "normalTexture": {
        "index": 5
      },
      "pbrMetallicRoughness": {
        "baseColorTexture": {
          "index": 3
        },
        "metallicFactor": 0.7,
        "metallicRoughnessTexture": {
          "index": 4
        },
        "roughnessFactor": 0.2
      }
    },
    {
      "doubleSided": true,
      "name": "Wood_Body",
      "normalTexture": {
        "index": 8,
        "scale": 0.5
      },
      "pbrMetallicRoughness": {
        "baseColorTexture": {
          "index": 6
        },
        "metallicFactor": 0.0,
        "metallicRoughnessTexture": {
          "index": 7
        },
        "roughnessFactor": 0.7
      }
    },
    {
      "doubleSided": true,
      "name": "Wood",
      "pbrMetallicRoughness": {
        "metallicFactor": 0.0,
        "roughnessFactor": 0.3
      }
    },
    {
      "doubleSided": true,
      "name": "Wood_Foot",
      "normalTexture": {
        "index": 11
      },
      "pbrMetallicRoughness": {
        "baseColorTexture": {
          "index": 9
        },
        "metallicFactor": 0.0,
        "metallicRoughnessTexture": {
          "index": 10
        },
        "roughnessFactor": 0.7
      }
    }
  ],
  "meshes": [
    {
      "name": "Box125_Wood_Head_0",
      "primitives": [
        {
          "attributes": {
            "JOINTS_0": 114,
            "NORMAL": 1,
            "POSITION": 0,
            "TANGENT": 2,
            "TEXCOORD_0": 3,
            "WEIGHTS_0": 115
          },
          "indices": 4,
          "material": 0,
          "mode": 4
        }
      ]
    },
    {
      "name": "Object076_Glass_0",
      "primitives": [
        {
          "attributes": {
            "JOINTS_0": 116,
            "NORMAL": 6,
            "POSITION": 5,
            "TEXCOORD_0": 7,
            "WEIGHTS_0": 117
          },
          "indices": 8,
          "material": 1,
          "mode": 4
        }
      ]
    },
    {
      "name": "Box122_Wood_Head_0",
      "primitives": [
        {
          "attributes": {
            "JOINTS_0": 118,
            "NORMAL": 10,
            "POSITION": 9,
            "TANGENT": 11,
            "TEXCOORD_0": 12,
            "WEIGHTS_0": 119
          },
          "indices": 13,
          "material": 0,
          "mode": 4
        }
      ]
    },
    {
      "name": "Line127_silver sus_0",
      "primitives": [
        {
          "attributes": {
            "JOINTS_0": 120,
            "NORMAL": 15,
            "POSITION": 14,
            "TANGENT": 16,
            "TEXCOORD_0": 17,
            "WEIGHTS_0": 121
          },
          "indices": 18,
          "material": 2,
          "mode": 4
        }
      ]
    },
    {
      "name": "Object072_silver sus_0",
      "primitives": [
        {
          "attributes": {
            "JOINTS_0": 122,
            "NORMAL": 20,
            "POSITION": 19,
            "TANGENT": 21,
            "TEXCOORD_0": 22,
            "WEIGHTS_0": 123
          },
          "indices": 23,
          "material": 2,
          "mode": 4
        }
      ]
    },
    {
      "name": "Rectangle124_silver sus_0",
      "primitives": [
        {
          "attributes": {
            "JOINTS_0": 124,
            "NORMAL": 25,
            "POSITION": 24,
            "TANGENT": 26,
            "TEXCOORD_0": 27,
            "WEIGHTS_0": 125
          },
          "indices": 28,
          "material": 2,
          "mode": 4
        }
      ]
    },
    {
      "name": "Cylinder031_silver sus_0",
      "primitives": [
        {
          "attributes": {
            "JOINTS_0": 126,
            "NORMAL": 30,
            "POSITION": 29,
            "TANGENT": 31,
            "TEXCOORD_0": 32,
            "WEIGHTS_0": 127
          },
          "indices": 33,
          "material": 2,
          "mode": 4
        }
      ]
    },
    {
      "name": "Line126_silver sus_0",
      "primitives": [
        {
          "attributes": {
            "JOINTS_0": 128,
            "NORMAL": 35,
            "POSITION": 34,
            "TANGENT": 36,
            "TEXCOORD_0": 37,
            "WEIGHTS_0": 129
          },
          "indices": 38,
          "material": 2,
          "mode": 4
        }
      ]
    },
    {
      "name": "Line129_silver sus_0",
      "primitives": [
        {
          "attributes": {
            "JOINTS_0": 130,
            "NORMAL": 40,
            "POSITION": 39,
            "TANGENT": 41,
            "TEXCOORD_0": 42,
            "WEIGHTS_0": 131
          },
          "indices": 43,
          "material": 2,
          "mode": 4
        }
      ]
    },
    {
      "name": "Line130_silver sus_0",
      "primitives": [
        {
          "attributes": {
            "JOINTS_0": 132,
            "NORMAL": 45,
            "POSITION": 44,
            "TANGENT": 46,
            "TEXCOORD_0": 47,
            "WEIGHTS_0": 133
          },
          "indices": 48,
          "material": 2,
          "mode": 4
        }
      ]
    },
    {
      "name": "Object068_Wood_Head_0",
      "primitives": [
        {
          "attributes": {
            "JOINTS_0": 134,
            "NORMAL": 50,
            "POSITION": 49,
            "TANGENT": 51,
            "TEXCOORD_0": 52,
            "WEIGHTS_0": 135
          },
          "indices": 53,
          "material": 0,
          "mode": 4
        }
      ]
    },
    {
      "name": "Object071_silver sus_0",
      "primitives": [
        {
          "attributes": {
            "JOINTS_0": 136,
            "NORMAL": 55,
            "POSITION": 54,
            "TANGENT": 56,
            "TEXCOORD_0": 57,
            "WEIGHTS_0": 137
          },
          "indices": 58,
          "material": 2,
          "mode": 4
        }
      ]
    },
    {
      "name": "Object073_silver sus_0",
      "primitives": [
        {
          "attributes": {
            "JOINTS_0": 138,
            "NORMAL": 60,
            "POSITION": 59,
            "TANGENT": 61,
            "TEXCOORD_0": 62,
            "WEIGHTS_0": 139
          },
          "indices": 63,
          "material": 2,
          "mode": 4
        }
      ]
    },
    {
      "name": "Object069_silver sus_0",
      "primitives": [
        {
          "attributes": {
            "JOINTS_0": 140,
            "NORMAL": 65,
            "POSITION": 64,
            "TANGENT": 66,
            "TEXCOORD_0": 67,
            "WEIGHTS_0": 141
          },
          "indices": 68,
          "material": 2,
          "mode": 4
        }
      ]
    },
    {
      "name": "Box165_Wood_Body_0",
      "primitives": [
        {
          "attributes": {
            "JOINTS_0": 142,
            "NORMAL": 70,
            "POSITION": 69,
            "TANGENT": 71,
            "TEXCOORD_0": 72,
            "WEIGHTS_0": 143
          },
          "indices": 73,
          "material": 3,
          "mode": 4
        }
      ]
    },
    {
      "name": "Box123_Wood_Body_0",
      "primitives": [
        {
          "attributes": {
            "NORMAL": 75,
            "POSITION": 74,
            "TANGENT": 76,
            "TEXCOORD_0": 77
          },
          "indices": 78,
          "material": 3,
          "mode": 4
        }
      ]
    },
    {
      "name": "Cylinder032_silver sus_0",
      "primitives": [
        {
          "attributes": {
            "NORMAL": 80,
            "POSITION": 79,
            "TANGENT": 81,
            "TEXCOORD_0": 82
          },
          "indices": 83,
          "material": 2,
          "mode": 4
        }
      ]
    },
    {
      "name": "Line128_silver sus_0",
      "primitives": [
        {
          "attributes": {
            "NORMAL": 85,
            "POSITION": 84,
            "TANGENT": 86,
            "TEXCOORD_0": 87
          },
          "indices": 88,
          "material": 2,
          "mode": 4
        }
      ]
    },
    {
      "name": "Object070_Wood_0",
      "primitives": [
        {
          "attributes": {
            "NORMAL": 90,
            "POSITION": 89,
            "TEXCOORD_0": 91
          },
          "indices": 92,
          "material": 4,
          "mode": 4
        }
      ]
    },
    {
      "name": "Object074_silver sus_0",
      "primitives": [
        {
          "attributes": {
            "NORMAL": 94,
            "POSITION": 93,
            "TANGENT": 95,
            "TEXCOORD_0": 96
          },
          "indices": 97,
          "material": 2,
          "mode": 4
        }
      ]
    },
    {
      "name": "Object075_silver sus_0",
      "primitives": [
        {
          "attributes": {
            "NORMAL": 99,
            "POSITION": 98,
            "TANGENT": 100,
            "TEXCOORD_0": 101
          },
          "indices": 102,
          "material": 2,
          "mode": 4
        }
      ]
    },
    {
      "name": "Rectangle121_Wood_Foot_0",
      "primitives": [
        {
          "attributes": {
            "NORMAL": 104,
            "POSITION": 103,
            "TANGENT": 105,
            "TEXCOORD_0": 106
          },
          "indices": 107,
          "material": 5,
          "mode": 4
        }
      ]
    },
    {
      "name": "Rectangle123_silver sus_0",
      "primitives": [
        {
          "attributes": {
            "NORMAL": 109,
            "POSITION": 108,
            "TANGENT": 110,
            "TEXCOORD_0": 111
          },
          "indices": 112,
          "material": 2,
          "mode": 4
        }
      ]
    }
  ],
  "nodes": [
    {
      "children": [
        1
      ],
      "matrix": [
        1.0,
        0.0,
        0.0,
        0.0,
        0.0,
        2.220446049250313e-16,
        -1.0,
        0.0,
        0.0,
        1.0,
        2.220446049250313e-16,
        0.0,
        0.0,
        0.0,
        0.0,
        1.0
      ],
      "name": "Sketchfab_model"
    },
    {
      "children": [
        2
      ],
      "matrix": [
        0.0010000000474974513,
        0.0,
        0.0,
        0.0,
        0.0,
        0.0,
        0.0010000000474974513,
        0.0,
        0.0,
        -0.0010000000474974513,
        0.0,
        0.0,
        0.0,
        0.0,
        0.0,
        1.0
      ],
      "name": "361a7eb5c3ac47d6a6a240a8db66e9e9.fbx"
    },
    {
      "children": [
        3
      ],
      "name": "Object_2"
    },
    {
      "children": [
        4
      ],
      "name": "RootNode"
    },
    {
      "children": [
        5
      ],
      "name": "Seat glass",
      "rotation": [
        -0.7071068286895752,
        -0.0,
        0.0,
        0.7071068286895752
      ],
      "translation": [
        365.00457763671875,
        103.58037567138672,
        0.26334381103515625
      ]
    },
    {
      "children": [
        6,
        8,
        10,
        12,
        14,
        16,
        18,
        20,
        22,
        24,
        26,
        28,
        30,
        32,
        34,
        36,
        7,
        9,
        11,
        13,
        15,
        17,
        19,
        21,
        23,
        25,
        27,
        29,
        31,
        33,
        35,
        41
      ],
      "name": "Object_5"
    },
    {
      "children": [
        37,
        40
      ],
      "name": "_rootJoint"
    },
    {
      "matrix": [
        0.8999999761581421,
        0.0,
        0.0,
        0.0,
        0.0,
        5.510910450173814e-17,
        -0.899999976158142,
        0.0,
        0.0,
        0.899999976158142,
        5.510910450173814e-17,
        0.0,
        365.20770263671875,
        162.06253051757813,
        5.6246490478515625,
        1.0
      ],
      "name": "Object_7"
    },
    {
      "mesh": 0,
      "name": "Object_8",
      "skin": 0
    },
    {
      "matrix": [
        0.8999999761581421,
        0.0,
        0.0,
        0.0,
        0.0,
        5.510910450173814e-17,
        -0.899999976158142,
        0.0,
        0.0,
        0.899999976158142,
        5.510910450173814e-17,
        0.0,
        365.2077064514161,
        158.46252386569995,
        5.624647617340057,
        1.0
      ],
      "name": "Object_9"
    },
    {
      "mesh": 1,
      "name": "Object_10",
      "skin": 0
    },
    {
      "matrix": [
        1.0,
        0.0,
        0.0,
        0.0,
        0.0,
        6.123233995736766e-17,
        -1.0,
        0.0,
        0.0,
        1.0,
        6.123233995736766e-17,
        0.0,
        365.00457763671875,
        180.0,
        5.984027862548828,
        1.0
      ],
      "name": "Object_11"
    },
    {
      "mesh": 2,
      "name": "Object_12",
      "skin": 0
    },
    {
      "matrix": [
        1.0,
        0.0,
        0.0,
        0.0,
        0.0,
        6.123233995736766e-17,
        -1.0,
        0.0,
        0.0,
        1.0,
        6.123233995736766e-17,
        0.0,
        294.013427734375,
        193.56216430664063,
        36.247100830078125,
        1.0
      ],
      "name": "Object_13"
    },
    {
      "mesh": 3,
      "name": "Object_14",
      "skin": 0
    },
    {
      "matrix": [
        1.0,
        0.0,
        0.0,
        0.0,
        0.0,
        6.123233995736766e-17,
        -1.0,
        0.0,
        0.0,
        1.0,
        6.123233995736766e-17,
        0.0,
        294.01348876953125,
        193.56216430664063,
        36.247100830078125,
        1.0
      ],
      "name": "Object_15"
    },
    {
      "mesh": 4,
      "name": "Object_16",
      "skin": 0
    },
    {
      "matrix": [
        1.0,
        0.0,
        0.0,
        0.0,
        0.0,
        1.7484555320818584e-07,
        -1.0,
        0.0,
        0.0,
        1.0,
        1.7484555320818584e-07,
        0.0,
        364.97021484375,
        191.06521606445313,
        159.06837463378906,
        1.0
      ],
      "name": "Object_17"
    },
    {
      "mesh": 5,
      "name": "Object_18",
      "skin": 0
    },
    {
      "matrix": [
        1.0,
        0.0,
        0.0,
        0.0,
        0.0,
        6.123233995736766e-17,
        -1.0,
        0.0,
        0.0,
        1.0,
        6.123233995736766e-17,
        0.0,
        294.01343536376953,
        194.4056854248047,
        35.974334716796875,
        1.0
      ],
      "name": "Object_19"
    },
    {
      "mesh": 6,
      "name": "Object_20",
      "skin": 0
    },
    {
      "matrix": [
        1.0,
        0.0,
        0.0,
        0.0,
        0.0,
        6.123233995736766e-17,
        -1.0,
        0.0,
        0.0,
        1.0,
        6.123233995736766e-17,
        0.0,
        294.013427734375,
        193.56216430664063,
        36.24709701538086,
        1.0
      ],
      "name": "Object_21"
    },
    {
      "mesh": 7,
      "name": "Object_22",
      "skin": 0
    },
    {
      "matrix": [
        1.0,
        0.0,
        0.0,
        0.0,
        0.0,
        6.123233995736766e-17,
        -1.0,
        0.0,
        0.0,
        1.0,
        6.123233995736766e-17,
        0.0,
        294.0052490234375,
        193.5621795654297,
        -164.22886657714844,
        1.0
      ],
      "name": "Object_23"
    },
    {
      "mesh": 8,
      "name": "Object_24",
      "skin": 0
    },
    {
      "matrix": [
        1.0,
        0.0,
        0.0,
        0.0,
        0.0,
        6.123233995736766e-17,
        -1.0,
        0.0,
        0.0,
        1.0,
        6.123233995736766e-17,
        0.0,
        435.9957275390625,
        193.5621795654297,
        -164.22886657714844,
        1.0
      ],
      "name": "Object_25"
    },
    {
      "mesh": 9,
      "name": "Object_26",
      "skin": 0
    },
    {
      "matrix": [
        1.0,
        0.0,
        0.0,
        0.0,
        0.0,
        6.123233995736766e-17,
        -1.0,
        0.0,
        0.0,
        1.0,
        6.123233995736766e-17,
        0.0,
        365.00456889444104,
        179.99999141693115,
        5.984039306640625,
        1.0
      ],
      "name": "Object_27"
    },
    {
      "mesh": 10,
      "name": "Object_28",
      "skin": 0
    },
    {
      "matrix": [
        1.0,
        0.0,
        0.0,
        0.0,
        0.0,
        6.123233995736766e-17,
        -1.0,
        0.0,
        0.0,
        1.0,
        6.123233995736766e-17,
        0.0,
        294.01348876953125,
        194.4056854248047,
        35.974334716796875,
        1.0
      ],
      "name": "Object_29"
    },
    {
      "mesh": 11,
      "name": "Object_30",
      "skin": 0
    },
    {
      "matrix": [
        1.0,
        0.0,
        0.0,
        0.0,
        0.0,
        6.123233995736766e-17,
        -1.0,
        0.0,
        0.0,
        1.0,
        6.123233995736766e-17,
        0.0,
        294.01348876953125,
        193.56216430664063,
        36.24709701538086,
        1.0
      ],
      "name": "Object_31"
    },
    {
      "mesh": 12,
      "name": "Object_32",
      "skin": 0
    },
    {
      "matrix": [
        0.46274873614311224,
        1.3234889800848443e-23,
        -1.3234889800848443e-23,
        0.0,
        -1.3234889800848443e-23,
        2.8335187926357274e-17,
        -0.46274873614311224,
        0.0,
        -1.3234889800848443e-23,
        0.46274873614311224,
        2.8335187926357274e-17,
        0.0,
        365.00451660156256,
        80.0000228881836,
        179.57298282027205,
        1.0
      ],
      "name": "Object_33"
    },
    {
      "mesh": 13,
      "name": "Object_34",
      "skin": 0
    },
    {
      "matrix": [
        1.0,
        0.0,
        0.0,
        0.0,
        0.0,
        1.0000000000000002,
        1.6292068488171574e-07,
        0.0,
        0.0,
        -1.6292068488171574e-07,
        1.0000000000000002,
        0.0,
        365.27014160156256,
        79.96877287859733,
        160.95277413811993,
        1.0
      ],
      "name": "Object_35"
    },
    {
      "mesh": 14,
      "name": "Object_36",
      "skin": 0
    },
    {
      "children": [
        38
      ],
      "name": "Dummy055_00",
      "translation": [
        0.0,
        164.279296875,
        76.41962432861328
      ]
    },
    {
      "children": [
        39
      ],
      "name": "Dummy054_01",
      "translation": [
        0.0,
        -199.99029541015625,
        13.773101806640625
      ]
    },
    {
      "name": "Dummy056_02",
      "rotation": [
        0.7071069478988647,
        0.0,
        0.0,
        0.7071065902709961
      ],
      "translation": [
        0.203125,
        -122.07374572753906,
        -13.710601806640625
      ]
    },
    {
      "name": "Dummy057_03",
      "rotation": [
        -0.5,
        0.5000000596046448,
        0.5,
        -0.49999991059303284
      ],
      "translation": [
        0.0,
        149.279296875,
        -24.080352783203125
      ]
    },
    {
      "children": [
        42,
        45,
        48,
        51,
        54,
        57,
        60,
        63,
        65,
        66,
        69,
        74,
        82
      ],
      "name": "Group043",
      "translation": [
        0.0,
        -6.614983558654785,
        -5.5496063232421875
      ]
    },
    {
      "children": [
        43
      ],
      "name": "Box123",
      "rotation": [
        -0.5,
        0.5000000596046448,
        0.5,
        -0.49999991059303284
      ],
      "translation": [
        -6.103515625e-05,
        0.8943023681640625,
        4.46923828125
      ]
    },
    {
      "children": [
        44
      ],
      "matrix": [
        1.0,
        0.0,
        -0.0,
        0.0,
        0.0,
        1.0,
        0.0,
        0.0,
        0.0,
        0.0,
        1.0,
        0.0,
        1.996769969991874e-05,
        4.5896972551418e-06,
        105.00003051757813,
        1.0
      ],
      "name": "Object_43"
    },
    {
      "mesh": 15,
      "name": "Box123_Wood_Body_0"
    },
    {
      "children": [
        46
      ],
      "name": "Cylinder032",
      "rotation": [
        -0.7071068286895752,
        0.0,
        0.0,
        0.7071067094802856
      ],
      "translation": [
        -70.99114990234375,
        172.39356994628906,
        81.96923065185547
      ]
    },
    {
      "children": [
        47
      ],
      "matrix": [
        1.0,
        0.0,
        -0.0,
        0.0,
        0.0,
        1.0,
        0.0,
        0.0,
        0.0,
        0.0,
        1.0,
        0.0,
        7.62939453125e-06,
        0.0,
        -0.0001068115234375,
        1.0
      ],
      "name": "Object_46"
    },
    {
      "mesh": 16,
      "name": "Cylinder032_silver sus_0"
    },
    {
      "children": [
        49,
        50
      ],
      "name": "Glass",
      "translation": [
        0.203125,
        1.2536773681640625,
        73.0317611694336
      ]
    },
    {
      "name": "Box125",
      "scale": [
        0.8999999761581421,
        0.8999999761581421,
        0.8999999761581421
      ],
      "translation": [
        0.0,
        9.5367431640625e-07,
        -9.0
      ]
    },
    {
      "name": "Object076",
      "scale": [
        0.8999999761581421,
        0.8999999761581421,
        0.8999999761581421
      ],
      "translation": [
        0.0,
        9.5367431640625e-07,
        -4.5
      ]
    },
    {
      "children": [
        52
      ],
      "name": "Line128",
      "rotation": [
        -0.7071068286895752,
        0.0,
        0.0,
        0.7071067094802856
      ],
      "translation": [
        -70.99114990234375,
        171.31600952148438,
        65.36605072021484
      ]
    },
    {
      "children": [
        53
      ],
      "matrix": [
        1.0,
        0.0,
        -0.0,
        0.0,
        0.0,
        1.0,
        0.0,
        0.0,
        0.0,
        0.0,
        1.0,
        0.0,
        0.0,
        -16.875961303710938,
        0.000152587890625,
        1.0
      ],
      "name": "Object_52"
    },
    {
      "mesh": 17,
      "name": "Line128_silver sus_0"
    },
    {
      "children": [
        55
      ],
      "name": "Object070",
      "rotation": [
        0.7071068286895752,
        0.0,
        0.0,
        0.7071067094802856
      ],
      "translation": [
        -6.103515625e-05,
        -6.605690002441406,
        -18.03076171875
      ]
    },
    {
      "children": [
        56
      ],
      "matrix": [
        1.0,
        0.0,
        -0.0,
        0.0,
        0.0,
        1.0,
        0.0,
        0.0,
        0.0,
        0.0,
        1.0,
        0.0,
        -3.814697265625e-06,
        1.7633736206335016e-05,
        61.406211853027344,
        1.0
      ],
      "name": "Object_55"
    },
    {
      "mesh": 18,
      "name": "Object070_Wood_0"
    },
    {
      "children": [
        58
      ],
      "name": "Object074",
      "rotation": [
        -0.7071068286895752,
        0.0,
        0.0,
        0.7071067094802856
      ],
      "translation": [
        70.99114990234375,
        172.39356994628906,
        81.96923065185547
      ]
    },
    {
      "children": [
        59
      ],
      "matrix": [
        1.0,
        0.0,
        -0.0,
        0.0,
        0.0,
        1.0,
        0.0,
        0.0,
        0.0,
        0.0,
        1.0,
        0.0,
        -141.98223876953125,
        0.0,
        -0.0001068115234375,
        1.0
      ],
      "name": "Object_58"
    },
    {
      "mesh": 19,
      "name": "Object074_silver sus_0"
    },
    {
      "children": [
        61
      ],
      "name": "Object075",
      "rotation": [
        -0.7071068286895752,
        0.0,
        0.0,
        0.7071067094802856
      ],
      "translation": [
        70.99114990234375,
        171.31600952148438,
        65.36605072021484
      ]
    },
    {
      "children": [
        62
      ],
      "matrix": [
        1.0,
        0.0,
        -0.0,
        0.0,
        0.0,
        1.0,
        0.0,
        0.0,
        0.0,
        0.0,
        1.0,
        0.0,
        -141.98223876953125,
        -16.875961303710938,
        0.000152587890625,
        1.0
      ],
      "name": "Object_61"
    },
    {
      "mesh": 20,
      "name": "Object075_silver sus_0"
    },
    {
      "children": [
        64
      ],
      "name": "Rectangle121",
      "scale": [
        1.0,
        1.0299999713897705,
        1.0
      ],
      "translation": [
        20.8245849609375,
        -8.748878479003906,
        -98.03076934814453
      ]
    },
    {
      "mesh": 21,
      "name": "Rectangle121_Wood_Foot_0"
    },
    {
      "name": "Rectangle122",
      "rotation": [
        0.7071068286895752,
        0.0,
        0.0,
        0.7071067094802856
      ],
      "translation": [
        120.0,
        -169.10568237304688,
        4.46923828125
      ]
    },
    {
      "children": [
        67
      ],
      "name": "Rectangle123",
      "rotation": [
        0.7071068286895752,
        0.0,
        0.0,
        0.7071067094802856
      ],
      "translation": [
        -0.034423828125,
        -169.75393676757813,
        73.46883392333984
      ]
    },
    {
      "children": [
        68
      ],
      "matrix": [
        1.0,
        0.0,
        -0.0,
        0.0,
        0.0,
        1.0,
        0.0,
        0.0,
        0.0,
        0.0,
        1.0,
        0.0,
        40.3126220703125,
        2.7454240322113037,
        -176.63226318359375,
        1.0
      ],
      "name": "Object_67"
    },
    {
      "mesh": 22,
      "name": "Rectangle123_silver sus_0"
    },
    {
      "children": [
        70,
        71,
        72,
        73
      ],
      "name": "door-005",
      "translation": [
        0.0,
        -99.94187927246094,
        89.14608001708984
      ]
    },
    {
      "name": "Box122",
      "translation": [
        0.0,
        70.836181640625,
        5.823150634765625
      ]
    },
    {
      "name": "Line127",
      "translation": [
        -70.99114990234375,
        53.96991729736328,
        6.38543701171875
      ]
    },
    {
      "name": "Object072",
      "translation": [
        70.99114990234375,
        53.96991729736328,
        6.38543701171875
      ]
    },
    {
      "name": "Rectangle124",
      "rotation": [
        8.742277657347586e-08,
        0.0,
        0.0,
        1.0
      ],
      "translation": [
        -0.03436279296875,
        -52.2481689453125,
        3.88836669921875
      ]
    },
    {
      "children": [
        75,
        76,
        77,
        78,
        79,
        80,
        81
      ],
      "name": "door-006",
      "translation": [
        0.0,
        70.95899200439453,
        90.0000228881836
      ]
    },
    {
      "name": "Cylinder031",
      "translation": [
        -70.99114990234375,
        -100.05500030517578,
        6.375
      ]
    },
    {
      "name": "Line126",
      "translation": [
        -70.99114990234375,
        -83.17903900146484,
        5.531219482421875
      ]
    },
    {
      "name": "Line129",
      "translation": [
        -70.99932861328125,
        84.05342864990234,
        -0.902252197265625
      ]
    },
    {
      "name": "Line130",
      "translation": [
        70.99114990234375,
        84.05342864990234,
        -0.902252197265625
      ]
    },
    {
      "name": "Object068",
      "translation": [
        0.0,
        99.93529510498047,
        4.969207763671875
      ]
    },
    {
      "name": "Object071",
      "translation": [
        70.99114990234375,
        -100.05500030517578,
        6.375
      ]
    },
    {
      "name": "Object073",
      "translation": [
        70.99114990234375,
        -83.4518051147461,
        5.531219482421875
      ]
    },
    {
      "children": [
        83,
        84
      ],
      "name": "Door-",
      "translation": [
        -6.103515625e-05,
        -10.194632530212402,
        -18.03075408935547
      ]
    },
    {
      "name": "Object069",
      "scale": [
        0.46274900436401367,
        0.46274900436401367,
        0.46274900436401367
      ],
      "translation": [
        0.0,
        -158.91107177734375,
        7.62939453125e-06
      ]
    },
    {
      "name": "Box165",
      "rotation": [
        0.7071068286895752,
        0.0,
        0.0,
        0.7071067094802856
      ],
      "translation": [
        0.265625,
        3.9827041625976563,
        -0.5852813720703125
      ]
    }
  ],
  "samplers": [
    {
      "magFilter": 9729,
      "minFilter": 9987,
      "wrapS": 10497,
      "wrapT": 10497
    }
  ],
  "scene": 0,
  "scenes": [
    {
      "name": "Sketchfab_Scene",
      "nodes": [
        0
      ]
    }
  ],
  "skins": [
    {
      "inverseBindMatrices": 113,
      "joints": [
        6,
        37,
        38,
        39,
        40
      ],
      "skeleton": 6
    }
  ],
  "textures": [
    {
      "sampler": 0,
      "source": 0
    },
    {
      "sampler": 0,
      "source": 1
    },
    {
      "sampler": 0,
      "source": 2
    },
    {
      "sampler": 0,
      "source": 3
    },
    {
      "sampler": 0,
      "source": 4
    },
    {
      "sampler": 0,
      "source": 5
    },
    {
      "sampler": 0,
      "source": 6
    },
    {
      "sampler": 0,
      "source": 7
    },
    {
      "sampler": 0,
      "source": 8
    },
    {
      "sampler": 0,
      "source": 9
    },
    {
      "sampler": 0,
      "source": 10
    },
    {
      "sampler": 0,
      "source": 11
    }
  ]
}
